<svg width="18" height="18" viewBox="0 0 18 18" fill="none" xmlns="http://www.w3.org/2000/svg">
    <path fill-rule="evenodd" clip-rule="evenodd" d="M17.0069 0H0.993103C0.444628 0 0 0.444628 0 0.993103V17.0069C0 17.5554 0.444628 18 0.993103 18H9.62069V11.039H7.27759V8.31414H9.62069V6.30931C9.62069 3.98483 11.0421 2.71862 13.1152 2.71862C13.8138 2.7171 14.512 2.75232 15.2069 2.82414V5.25414H13.7793C12.6497 5.25414 12.4293 5.78793 12.4293 6.57621V8.31103H15.1293L14.7786 11.0359H12.4138V18H17.0069C17.5554 18 18 17.5554 18 17.0069V0.993103C18 0.444628 17.5554 0 17.0069 0Z" fill="white"/>
</svg>
