<svg width="68" height="69" viewBox="0 0 68 69" fill="none" xmlns="http://www.w3.org/2000/svg">
    <rect width="56" height="56" rx="3" fill="#1B1B3A"/>
    <path d="M30.6667 14.667H20C19.2928 14.667 18.6145 14.9479 18.1144 15.448C17.6143 15.9481 17.3334 16.6264 17.3334 17.3337V38.667C17.3334 39.3742 17.6143 40.0525 18.1144 40.5526C18.6145 41.0527 19.2928 41.3337 20 41.3337H36C36.7073 41.3337 37.3856 41.0527 37.8857 40.5526C38.3858 40.0525 38.6667 39.3742 38.6667 38.667V22.667L30.6667 14.667Z" stroke="white" stroke-width="2" stroke-linecap="round" stroke-linejoin="round"/>
    <path d="M30.6666 14.667V22.667H38.6666" stroke="white" stroke-width="2" stroke-linecap="round" stroke-linejoin="round"/>
    <path d="M24 32H32" stroke="white" stroke-width="2" stroke-linecap="round" stroke-linejoin="round"/>
    <path d="M48.7396 55.3029C48.0885 50.6174 50.2695 47.4657 52.1071 45.6583C54.5145 42.8811 56.2541 40.3311 57.4041 38.186C58.8581 35.4739 59.585 34.1179 60.0974 34.0491C60.1724 34.039 60.2102 34.0376 60.2856 34.0417C60.8009 34.0698 61.4571 35.1227 62.7693 37.2286C67.4083 44.6731 64.806 49.9703 62.9716 52.2693L61.5907 53.6478C60.223 55.217 59.193 56.7267 58.4296 58.1458L58.4296 58.1458C55.9322 62.7885 54.6834 65.1098 54.1594 65.1705C54.0763 65.1802 54.0511 65.1807 53.9679 65.1743C53.4428 65.1344 52.4829 63.4534 50.5632 60.0916C49.6419 58.4783 48.9515 56.8281 48.7396 55.3029Z" fill="#0085FF" stroke="white" stroke-width="5"/>
</svg>
