<svg width="56" height="56" viewBox="0 0 56 56" fill="none" xmlns="http://www.w3.org/2000/svg">
    <mask id="path-1-inside-1" fill="white">
        <path d="M28 0C43.464 -6.75952e-07 56 12.536 56 28C56 43.464 43.464 56 28 56C12.536 56 6.75952e-07 43.464 0 28C-6.75952e-07 12.536 12.536 6.75952e-07 28 0Z"/>
    </mask>
    <path d="M1 28C0.999999 13.0883 13.0883 1 28 1V-1C11.9837 -0.999999 -1 11.9837 -1 28H1ZM28 55C13.0883 55 1 42.9117 1 28H-1C-0.999999 44.0163 11.9837 57 28 57V55ZM55 28C55 42.9117 42.9117 55 28 55V57C44.0163 57 57 44.0163 57 28H55ZM57 28C57 11.9837 44.0163 -1 28 -1V1C42.9117 0.999999 55 13.0883 55 28H57Z" fill="black" mask="url(#path-1-inside-1)"/>
    <path fill-rule="evenodd" clip-rule="evenodd" d="M30.5 21L23 28L30.5 35L32 33.6L26 28L32 22.4L30.5 21Z" fill="#1B1B3A"/>
</svg>
