<svg width="56" height="56" viewBox="0 0 56 56" fill="none" xmlns="http://www.w3.org/2000/svg">
    <mask id="path-1-inside-1" fill="white">
        <path d="M28 0C12.536 -6.75952e-07 -3.8147e-06 12.536 -3.8147e-06 28C-3.8147e-06 43.464 12.536 56 28 56C43.464 56 56 43.464 56 28C56 12.536 43.464 6.75952e-07 28 0Z"/>
    </mask>
    <path d="M55 28C55 13.0883 42.9117 1 28 1V-1C44.0163 -0.999999 57 11.9837 57 28H55ZM28 55C42.9117 55 55 42.9117 55 28H57C57 44.0163 44.0163 57 28 57V55ZM0.999996 28C0.999996 42.9117 13.0883 55 28 55V57C11.9837 57 -1 44.0163 -1 28H0.999996ZM-1 28C-1 11.9837 11.9837 -1 28 -1V1C13.0883 0.999999 0.999996 13.0883 0.999996 28H-1Z" fill="white" mask="url(#path-1-inside-1)"/>
    <path fill-rule="evenodd" clip-rule="evenodd" d="M25.5 21L33 28L25.5 35L24 33.6L30 28L24 22.4L25.5 21Z" fill="white"/>
</svg>
