<svg width="451" height="554" viewBox="0 0 451 554" fill="none" xmlns="http://www.w3.org/2000/svg">
    <g opacity="0.11">
        <path d="M174.314 -239.525L174.807 -239.611L174.314 -239.525ZM189.638 -288.707L190 -288.363L190.009 -288.372L190.017 -288.382L189.638 -288.707ZM212.122 -181.82L212.619 -181.874L212.6 -182.052L212.471 -182.177L212.122 -181.82ZM193.097 -118.448L192.667 -118.702L193.097 -118.448ZM132.609 -36.1952L132.214 -36.5021L132.609 -36.1952ZM127.509 -29.911L127.128 -30.2341L127.128 -30.2341L127.509 -29.911ZM19.4277 105.949L19.825 106.253L19.4277 105.949ZM22.2143 206.921L21.7961 207.195L21.8143 207.222L21.836 207.248L22.2143 206.921ZM56.7441 246.892L57.185 247.127L57.3469 246.825L57.1224 246.565L56.7441 246.892ZM50.2005 259.127L50.563 259.471L50.6095 259.423L50.6414 259.363L50.2005 259.127ZM28.4455 316.774L27.9529 316.859L28.4455 316.774ZM72.5795 380.357L72.2499 380.733L73.0213 380.123L72.5795 380.357ZM92.9293 306.237L93.3171 306.552L92.9293 306.237ZM284.996 64.6963L284.607 64.3832L284.604 64.3864L284.996 64.6963ZM312.096 30.961L312.485 31.2741L312.491 31.2669L312.497 31.2594L312.096 30.961ZM290.976 -69.709L291.328 -70.0642L290.239 -71.1431L290.482 -69.6296L290.976 -69.709ZM251.516 1.48241L251.904 1.79693L251.516 1.48241ZM170.137 104.511L170.526 104.826L170.532 104.818L170.137 104.511ZM96.9502 194.81L96.5997 195.166L96.9922 195.552L97.3387 195.125L96.9502 194.81ZM93.5769 191.598L93.2347 191.963L93.5769 191.598ZM75.8268 133.457L75.4388 133.142L75.4011 133.189L75.3754 133.242L75.8268 133.457ZM154.437 36.7255L154.825 37.0409L154.825 37.0401L154.437 36.7255ZM205.27 -26.0647L205.659 -25.7501L204.882 -26.38L205.27 -26.0647ZM235.232 -67.1185L235.632 -66.819L235.232 -67.1185ZM242.072 -76.2845L242.479 -75.9942L242.072 -76.2845ZM249.361 -142.772L249.752 -143.082L249.361 -142.772ZM216.123 -182.424L215.636 -182.309L215.666 -182.182L215.755 -182.086L216.123 -182.424ZM238.798 -250.062L239.186 -249.747L239.192 -249.754L239.197 -249.762L238.798 -250.062ZM248.807 -263.349L249.207 -263.048L249.208 -263.051L248.807 -263.349ZM229.098 -357.081L229.45 -357.436L228.361 -358.515L228.604 -357.002L229.098 -357.081ZM206.543 -308.43L206.923 -308.105L206.927 -308.11L206.932 -308.116L206.543 -308.43ZM174.807 -239.611C170.762 -262.903 181.112 -279.007 190 -288.363L189.275 -289.052C180.259 -279.562 169.703 -263.153 173.822 -239.44L174.807 -239.611ZM212.471 -182.177C205.516 -188.968 196.96 -198.336 189.709 -208.512C182.452 -218.699 176.537 -229.649 174.807 -239.611L173.822 -239.44C175.59 -229.256 181.609 -218.159 188.895 -207.932C196.188 -197.695 204.787 -188.282 211.773 -181.462L212.471 -182.177ZM193.528 -118.194C208.527 -143.652 214.16 -167.64 212.619 -181.874L211.625 -181.766C213.135 -167.826 207.604 -144.057 192.667 -118.702L193.528 -118.194ZM133.004 -35.8884C135.566 -39.1851 149.732 -58.1238 163.733 -77.0473C170.735 -86.5105 177.697 -95.9725 183.149 -103.477C188.591 -110.967 192.552 -116.537 193.528 -118.194L192.667 -118.702C191.722 -117.098 187.801 -111.58 182.34 -104.065C176.89 -96.5637 169.93 -87.1043 162.929 -77.642C148.925 -58.7148 134.768 -39.7872 132.214 -36.5021L133.004 -35.8884ZM127.891 -29.5879C129.663 -31.681 131.367 -33.7827 133.004 -35.8884L132.214 -36.5021C130.586 -34.4074 128.891 -32.3165 127.128 -30.2341L127.891 -29.5879ZM19.825 106.253C40.209 79.5855 95.4771 8.69769 127.891 -29.588L127.128 -30.2341C94.6968 8.07168 39.4161 78.9762 19.0305 105.645L19.825 106.253ZM22.6326 206.647C-3.68342 166.481 6.99582 123.036 19.825 106.253L19.0305 105.645C5.96206 122.742 -4.7687 166.649 21.7961 207.195L22.6326 206.647ZM57.1224 246.565L22.5927 206.594L21.836 207.248L56.3657 247.218L57.1224 246.565ZM50.6414 259.363L57.185 247.127L56.3031 246.656L49.7596 258.891L50.6414 259.363ZM28.9381 316.688C26.9215 305.077 30.0808 293.13 34.8878 282.883C39.6931 272.639 46.1205 264.147 50.563 259.471L49.838 258.783C45.328 263.53 38.837 272.11 33.9825 282.458C29.1296 292.803 25.8876 304.968 27.9529 316.859L28.9381 316.688ZM72.909 379.981C66.425 374.299 56.435 364.302 47.5601 352.798C38.6749 341.28 30.9574 328.315 28.9381 316.688L27.9529 316.859C30.0154 328.735 37.8596 341.86 46.7683 353.409C55.6874 364.97 65.7233 375.014 72.2499 380.733L72.909 379.981ZM92.5415 305.921C63.5657 341.532 66.7682 370.453 72.1376 380.591L73.0213 380.123C67.8871 370.429 64.5243 341.938 93.3171 306.552L92.5415 305.921ZM284.604 64.3864C230.351 133.073 121.423 270.426 92.5415 305.921L93.3171 306.552C122.204 271.05 231.138 133.691 285.389 65.0062L284.604 64.3864ZM311.706 30.6479L284.607 64.3832L285.386 65.0095L312.485 31.2741L311.706 30.6479ZM290.624 -69.3538C314.863 -45.3435 322.717 -23.8502 323.239 -6.63587C323.76 10.5899 316.941 23.6092 311.694 30.6626L312.497 31.2594C317.838 24.0799 324.769 10.8447 324.238 -6.66613C323.708 -24.1884 315.708 -45.9136 291.328 -70.0642L290.624 -69.3538ZM251.904 1.79693C264.56 -13.8429 274.861 -29.0654 281.792 -41.6889C285.258 -47.9999 287.886 -53.6712 289.544 -58.4268C291.195 -63.1629 291.909 -67.0593 291.469 -69.7885L290.482 -69.6296C290.88 -67.1586 290.24 -63.4616 288.6 -58.756C286.966 -54.0701 284.365 -48.4516 280.916 -42.1702C274.019 -29.6089 263.753 -14.4356 251.127 1.16789L251.904 1.79693ZM170.532 104.818C187.124 83.4932 226.626 33.0363 251.904 1.79693L251.127 1.16789C225.842 32.4152 186.335 82.8787 169.743 104.204L170.532 104.818ZM97.3387 195.125L170.526 104.826L169.749 104.196L96.5618 194.495L97.3387 195.125ZM93.2347 191.963C94.4552 193.109 95.5898 194.174 96.5997 195.166L97.3007 194.453C96.2811 193.451 95.1375 192.377 93.9192 191.234L93.2347 191.963ZM75.3754 133.242C68.4793 147.717 69.9533 159.622 74.6746 169.309C79.3793 178.962 87.2998 186.391 93.2347 191.963L93.9192 191.234C87.9672 185.646 80.1857 178.334 75.5735 168.871C70.978 159.442 69.5204 147.857 76.2782 133.673L75.3754 133.242ZM154.049 36.4102L75.4388 133.142L76.2148 133.773L154.825 37.0409L154.049 36.4102ZM204.881 -26.3793L154.048 36.4109L154.825 37.0401L205.659 -25.7501L204.881 -26.3793ZM234.832 -67.4181C228.282 -58.6639 218.406 -45.4655 211.361 -35.9223C207.839 -31.1529 205.02 -27.2897 203.676 -25.3515C203.341 -24.8686 203.091 -24.4957 202.945 -24.256C202.881 -24.1503 202.809 -24.0281 202.774 -23.9288C202.765 -23.9043 202.744 -23.8426 202.739 -23.7649C202.737 -23.7224 202.725 -23.4269 203.014 -23.2785C203.138 -23.2147 203.254 -23.2182 203.319 -23.2275C203.385 -23.2369 203.436 -23.2572 203.463 -23.2699C203.519 -23.2951 203.562 -23.3257 203.583 -23.3418C203.666 -23.4039 203.765 -23.5058 203.862 -23.6109C203.969 -23.7267 204.106 -23.8811 204.271 -24.0743C204.602 -24.4611 205.061 -25.0148 205.658 -25.7494L204.882 -26.38C204.287 -25.6478 203.835 -25.1019 203.512 -24.7249C203.35 -24.5361 203.223 -24.3926 203.128 -24.2903C203.081 -24.2391 203.044 -24.2007 203.016 -24.1734C202.985 -24.143 202.976 -24.1365 202.982 -24.1411C202.983 -24.1417 203.008 -24.1616 203.051 -24.1807C203.072 -24.1904 203.117 -24.2088 203.178 -24.2175C203.238 -24.2261 203.35 -24.23 203.471 -24.1678C203.753 -24.0228 203.739 -23.7351 203.737 -23.705C203.733 -23.6397 203.716 -23.595 203.715 -23.592C203.711 -23.5787 203.725 -23.6146 203.799 -23.735C203.928 -23.9475 204.163 -24.2993 204.498 -24.7818C205.831 -26.7053 208.642 -30.556 212.165 -35.3283C219.209 -44.8684 229.082 -58.064 235.632 -66.819L234.832 -67.4181ZM241.665 -76.5748C241.297 -76.0593 238.626 -72.4891 234.832 -67.4181L235.632 -66.819C239.419 -71.8798 242.102 -75.4663 242.479 -75.9942L241.665 -76.5748ZM248.969 -142.461C258.629 -130.288 259.458 -117.563 256.552 -106.003C253.639 -94.4206 246.975 -84.0214 241.665 -76.5748L242.479 -75.9942C247.804 -83.4611 254.561 -93.9867 257.521 -105.76C260.488 -117.556 259.644 -130.618 249.752 -143.082L248.969 -142.461ZM215.755 -182.086C221.975 -175.324 232.919 -162.685 248.969 -142.461L249.752 -143.082C233.693 -163.319 222.732 -175.978 216.491 -182.763L215.755 -182.086ZM238.41 -250.378C214.267 -220.706 212.469 -195.692 215.636 -182.309L216.609 -182.54C213.525 -195.574 215.207 -220.277 239.186 -249.747L238.41 -250.378ZM248.408 -263.65L238.399 -250.363L239.197 -249.762L249.206 -263.048L248.408 -263.65ZM228.746 -356.726C252.996 -332.704 260.484 -312.948 260.655 -297.486C260.827 -282.018 253.678 -270.735 248.406 -263.647L249.208 -263.051C254.524 -270.196 261.83 -281.699 261.655 -297.498C261.48 -313.304 253.819 -333.297 229.45 -357.436L228.746 -356.726ZM206.932 -308.116C219.577 -323.742 225.677 -333.356 228.395 -340.392C231.132 -347.476 230.432 -351.937 229.591 -357.161L228.604 -357.002C229.437 -351.825 230.101 -347.582 227.462 -340.752C224.805 -333.873 218.792 -324.362 206.155 -308.745L206.932 -308.116ZM190.017 -288.382L206.923 -308.105L206.164 -308.756L189.258 -289.033L190.017 -288.382Z" fill="white"/>
        <path d="M436.133 165.32L435.716 165.596L435.725 165.609L435.734 165.621L436.133 165.32ZM342.118 23.3527L342.535 23.0766L341.626 23.4383L342.118 23.3527ZM426.034 248.922L426.418 249.241L426.034 248.922ZM227.092 501.174L227.454 501.518L227.471 501.5L227.486 501.481L227.092 501.174ZM200.092 574.029L199.606 574.146L199.639 574.283L199.739 574.383L200.092 574.029ZM236.42 630.275L236.912 630.189L236.42 630.275ZM221.096 679.457L220.734 679.112L220.725 679.122L220.717 679.131L221.096 679.457ZM204.191 699.18L203.811 698.854L203.806 698.86L203.802 698.865L204.191 699.18ZM181.636 747.831L181.284 748.186L182.373 749.265L182.13 747.751L181.636 747.831ZM161.927 654.098L161.527 653.798L161.526 653.8L161.927 654.098ZM171.936 640.812L171.548 640.496L171.542 640.504L171.537 640.511L171.936 640.812ZM194.665 573.404L195.152 573.292L195.121 573.158L195.026 573.058L194.665 573.404ZM163.978 480.733L163.505 480.572L163.5 480.585L163.497 480.598L163.978 480.733ZM177.648 461.131L178.019 461.467L178.029 461.456L178.038 461.445L177.648 461.131ZM317.647 287.136L318.037 287.449L318.043 287.441L317.647 287.136ZM362.92 228.481L362.531 228.166L362.524 228.175L362.92 228.481ZM361.238 170.021L360.817 170.291L360.836 170.32L360.859 170.347L361.238 170.021ZM349.26 151.354L349.681 151.084L349.296 150.485L348.863 151.05L349.26 151.354ZM236.038 298.904L236.428 299.217L236.435 299.208L236.038 298.904ZM154.74 400.11L154.35 399.796L154.345 399.804L154.339 399.811L154.74 400.11ZM134.552 470.586L134.223 470.962L135.013 470.394L134.552 470.586ZM92.9517 397.965L92.4526 397.996L92.4534 398.009L92.4549 398.022L92.9517 397.965ZM118.726 345.933L118.345 345.61L118.726 345.933ZM274.687 148.766L275.082 149.073L275.087 149.066L274.687 148.766ZM320.041 88.2883L319.643 87.9846L319.641 87.9883L320.041 88.2883ZM436.55 165.044L342.535 23.0766L341.701 23.6288L435.716 165.596L436.55 165.044ZM426.418 249.241C457.237 212.145 446.061 177.675 436.533 165.019L435.734 165.621C445.017 177.952 456.137 211.905 425.649 248.602L426.418 249.241ZM227.486 501.481C281.031 432.767 395.771 286.131 426.418 249.241L425.649 248.602C394.989 285.507 280.236 432.16 226.697 500.866L227.486 501.481ZM200.578 573.912C197.225 559.994 200.817 545.177 206.836 532.169C212.851 519.167 221.263 508.035 227.454 501.518L226.729 500.829C220.473 507.414 211.995 518.636 205.928 531.75C199.863 544.857 196.179 559.918 199.606 574.146L200.578 573.912ZM199.739 574.383C206.654 581.276 214.871 590.455 221.777 600.328C228.69 610.211 234.257 620.747 235.927 630.36L236.912 630.189C235.205 620.36 229.539 609.68 222.597 599.755C215.648 589.82 207.389 580.597 200.445 573.675L199.739 574.383ZM235.927 630.36C239.972 653.652 229.622 669.757 220.734 679.112L221.459 679.801C230.475 670.311 241.031 653.902 236.912 630.189L235.927 630.36ZM220.717 679.131L203.811 698.854L204.57 699.505L221.476 679.782L220.717 679.131ZM203.802 698.865C191.157 714.492 185.056 724.106 182.339 731.141C179.602 738.226 180.302 742.686 181.142 747.91L182.13 747.751C181.297 742.575 180.633 738.332 183.271 731.502C185.929 724.622 191.942 715.111 204.579 699.494L203.802 698.865ZM181.988 747.475C157.737 723.454 150.25 703.697 150.079 688.236C149.907 672.767 157.056 661.484 162.328 654.397L161.526 653.8C156.21 660.945 148.903 672.448 149.079 688.247C149.254 704.054 156.915 724.047 181.284 748.186L181.988 747.475ZM162.326 654.399L172.335 641.113L171.537 640.511L161.527 653.798L162.326 654.399ZM172.324 641.127C196.328 611.627 198.243 586.731 195.152 573.292L194.178 573.516C197.189 586.609 195.389 611.196 171.548 640.496L172.324 641.127ZM163.497 480.598C152.842 518.601 176.301 554.932 194.304 573.75L195.026 573.058C177.086 554.306 153.955 518.337 164.46 480.868L163.497 480.598ZM177.278 460.796C168.281 470.729 164.353 478.075 163.505 480.572L164.452 480.893C165.238 478.58 169.067 471.351 178.019 461.467L177.278 460.796ZM317.258 286.822L177.259 460.818L178.038 461.445L318.037 287.449L317.258 286.822ZM362.524 228.175L317.251 286.83L318.043 287.441L363.316 228.786L362.524 228.175ZM360.859 170.347C370.486 181.501 372.21 194.335 370.865 205.215C369.518 216.116 365.097 224.995 362.531 228.166L363.309 228.795C366.01 225.457 370.491 216.395 371.858 205.337C373.227 194.259 371.476 181.117 361.616 169.694L360.859 170.347ZM348.839 151.624L360.817 170.291L361.659 169.751L349.681 151.084L348.839 151.624ZM236.435 299.208L349.657 151.659L348.863 151.05L235.641 298.599L236.435 299.208ZM155.13 400.423L236.428 299.217L235.648 298.59L154.35 399.796L155.13 400.423ZM135.013 470.394C130.459 459.464 132.802 445.558 137.671 432.527C142.533 419.517 149.87 407.494 155.141 400.408L154.339 399.811C149.023 406.958 141.635 419.062 136.735 432.177C131.842 445.27 129.384 459.485 134.09 470.778L135.013 470.394ZM92.4549 398.022C94.3146 414.253 101.676 429.791 110.097 442.605C118.519 455.421 128.026 465.548 134.223 470.962L134.881 470.209C128.751 464.854 119.304 454.795 110.932 442.055C102.559 429.314 95.2838 413.926 93.4484 397.908L92.4549 398.022ZM118.345 345.61C107.507 358.41 100.932 369.784 97.1173 378.813C93.308 387.829 92.2387 394.535 92.4526 397.996L93.4507 397.934C93.25 394.688 94.2605 388.144 98.0384 379.203C101.811 370.275 108.33 358.986 119.108 346.256L118.345 345.61ZM274.293 148.458C231.308 203.548 139.951 320.089 118.345 345.61L119.108 346.256C140.731 320.716 232.105 204.152 275.081 149.073L274.293 148.458ZM319.641 87.9883L274.287 148.466L275.087 149.066L320.441 88.5882L319.641 87.9883ZM341.626 23.4383C343.643 35.0518 340.429 48.2171 335.546 59.9977C330.667 71.7681 324.15 82.0891 319.643 87.9846L320.438 88.5919C324.991 82.6349 331.554 72.2393 336.47 60.3806C341.381 48.5322 344.676 35.156 342.611 23.2672L341.626 23.4383Z" fill="white"/>
    </g>
</svg>
