<svg width="36" height="24" viewBox="0 0 36 24" fill="none" xmlns="http://www.w3.org/2000/svg">
    <path opacity="0.5" d="M5.66945 7.58C6.36012 7.58 6.98545 7.73867 7.54545 8.056C8.10545 8.364 8.54412 8.80267 8.86145 9.372C9.17879 9.94133 9.33745 10.59 9.33745 11.318C9.33745 12.046 9.17879 12.6947 8.86145 13.264C8.54412 13.8333 8.10545 14.2767 7.54545 14.594C6.98545 14.9113 6.36012 15.07 5.66945 15.07C5.05345 15.07 4.49812 14.9393 4.00345 14.678C3.51812 14.4167 3.12612 14.0387 2.82745 13.544V15H1.87545V4.612H2.86945V9.036C3.17745 8.56 3.56945 8.20067 4.04545 7.958C4.53079 7.706 5.07212 7.58 5.66945 7.58ZM5.59945 14.188C6.11279 14.188 6.57945 14.0713 6.99945 13.838C7.41945 13.5953 7.74612 13.2547 7.97945 12.816C8.22212 12.3773 8.34345 11.878 8.34345 11.318C8.34345 10.758 8.22212 10.2587 7.97945 9.82C7.74612 9.38133 7.41945 9.04533 6.99945 8.812C6.57945 8.56933 6.11279 8.448 5.59945 8.448C5.07679 8.448 4.60545 8.56933 4.18545 8.812C3.77479 9.04533 3.44812 9.38133 3.20545 9.82C2.97212 10.2587 2.85545 10.758 2.85545 11.318C2.85545 11.878 2.97212 12.3773 3.20545 12.816C3.44812 13.2547 3.77479 13.5953 4.18545 13.838C4.60545 14.0713 5.07679 14.188 5.59945 14.188ZM17.4967 7.636L13.8147 15.882C13.516 16.5727 13.1707 17.0627 12.7787 17.352C12.3867 17.6413 11.9153 17.786 11.3647 17.786C11.01 17.786 10.6787 17.73 10.3707 17.618C10.0627 17.506 9.79666 17.338 9.57266 17.114L10.0347 16.372C10.408 16.7453 10.856 16.932 11.3787 16.932C11.7147 16.932 11.9993 16.8387 12.2327 16.652C12.4753 16.4653 12.6993 16.148 12.9047 15.7L13.2267 14.986L9.93666 7.636H10.9727L13.7447 13.894L16.5167 7.636H17.4967Z" fill="white"/>
    <g opacity="0.5">
        <path d="M26.1403 6.21094H23L23.738 9.20011H26.8494L26.1403 6.21094Z" fill="white"/>
        <path d="M32.1443 6.21094L27.8752 23.6478H30.9143L35.1689 6.21094H32.1443Z" fill="white"/>
    </g>
</svg>
