<svg width="56" height="129" viewBox="0 0 56 129" fill="none" xmlns="http://www.w3.org/2000/svg">
    <path fill-rule="evenodd" clip-rule="evenodd" d="M24.8844 7.24867C23.9816 8.21494 22.9272 9.88168 23.3366 12.2901C23.6277 14.0022 25.0875 15.9816 26.3779 17.4026C26.3411 19.1874 25.6177 21.7956 24.0237 24.548C23.5541 25.359 17.2538 33.9597 16.6282 34.7783C16.4286 35.0395 16.2209 35.3002 16.0048 35.5599C12.0407 40.323 5.28274 49.1407 2.79044 52.4576C1.20729 54.5646 -0.101532 59.9968 3.13114 65.0161L7.35282 69.9875L6.55279 71.5093C5.45824 72.6813 3.39391 75.756 3.89297 78.6791C4.39203 81.6023 7.6982 85.1693 9.2889 86.5874C8.6468 85.3541 8.24546 81.7837 11.7769 77.3686C15.3084 72.9534 28.6265 55.8696 35.2595 47.3268L38.5727 43.1309C39.8672 41.3607 41.935 36.6 35.9906 30.61C36.1952 31.9035 34.2571 35.5786 31.1661 39.4645C28.0751 43.3504 23.2451 49.6264 21.2166 52.2787L12.2685 63.5098C12.1445 63.3857 12.0052 63.2527 11.8561 63.1103C10.4028 61.7224 8.01656 59.4434 9.68593 55.879L19.297 43.8479L25.512 36.0383C24.3462 37.4978 27.5734 33.11 29.1752 30.9322C29.6386 30.3021 29.9659 29.857 30.0114 29.7922C31.3118 27.9373 33.2931 24.5871 30.9026 21.5228C29.3753 19.5649 28.2256 18.178 27.4318 17.262C27.3753 15.8186 27.8608 13.6727 29.8347 11.2063L30.8442 9.84404C31.9121 8.3847 33.7606 5.17179 28.8655 0.238796C29.0333 1.30458 29.1389 2.02268 26.5892 5.22627L24.8844 7.24867Z" fill="#1B1B3A"/>
    <path fill-rule="evenodd" clip-rule="evenodd" d="M42.4472 41.8894L53.9417 59.5467C55.0916 61.1006 56.4546 65.3557 52.7069 69.9448C48.9591 74.5339 34.9299 92.773 28.3837 101.319C26.9753 102.827 24.6362 106.307 24.9528 109.592C26.3647 110.892 28.9941 113.805 29.4045 116.209C29.8315 118.71 28.7381 120.439 27.8017 121.442L26.0334 123.541C23.3889 126.865 23.4991 127.611 23.6742 128.718C18.5885 123.593 20.5051 120.258 21.6126 118.744L22.6595 117.33C24.7159 114.759 25.2136 112.523 25.1485 111.024C22.9367 109.004 19.2241 104.013 20.6673 98.7765C20.7673 98.4773 21.2415 97.571 22.3387 96.3386L39.4553 74.6977L44.9904 67.4024C45.6344 66.5928 47.1673 62.9394 44.7848 60.1314L43.3203 57.8097L29.4775 76.1613L19.5379 88.7489C18.2434 90.5191 15.9374 94.7506 17.0696 97.5145C15.5624 96.1749 12.4352 92.4932 11.9834 88.4822C11.9327 87.6481 12.492 85.186 15.1347 82.0106C17.7774 78.8353 28.9479 64.339 34.2029 57.4878L39.7479 49.9658C40.8556 48.4917 42.9463 44.8126 42.4472 41.8894ZM25.0768 110.355C25.0611 110.267 25.0434 110.182 25.0241 110.102C25.0397 110.187 25.0573 110.271 25.0768 110.355Z" fill="#1B1B3A"/>
</svg>
