<?xml version="1.0" standalone="no"?>
<!DOCTYPE svg PUBLIC "-//W3C//DTD SVG 20010904//EN"
 "http://www.w3.org/TR/2001/REC-SVG-20010904/DTD/svg10.dtd">
<svg version="1.0" xmlns="http://www.w3.org/2000/svg"
 width="952.000000pt" height="952.000000pt" viewBox="0 0 952.000000 952.000000"
 preserveAspectRatio="xMidYMid meet">
<metadata>
Created by potrace 1.11, written by Peter Selinger 2001-2013
</metadata>
<g transform="translate(0.000000,952.000000) scale(0.100000,-0.100000)"
fill="#000000" stroke="none">
<path d="M1420 9388 c0 -4 -7 -5 -16 -1 -12 5 -15 2 -11 -13 7 -22 77 -291 82
-314 2 -8 11 -40 19 -72 8 -31 17 -67 20 -80 3 -12 14 -59 26 -103 12 -44 23
-87 25 -95 2 -8 16 -60 30 -115 15 -55 31 -116 35 -135 5 -19 22 -89 40 -155
17 -66 33 -128 35 -138 2 -10 7 -27 10 -37 3 -10 8 -27 10 -37 3 -19 48 -192
65 -253 l9 -36 855 1 c470 0 857 3 861 6 3 4 -4 47 -15 95 -12 49 -23 96 -25
104 -2 8 -15 62 -30 120 -15 58 -28 112 -30 120 -2 8 -22 89 -45 180 -23 91
-43 172 -45 180 -2 8 -11 44 -20 80 -9 36 -18 72 -20 80 -2 8 -8 35 -14 60 -7
25 -14 54 -16 66 -3 11 -16 65 -30 120 -15 54 -28 108 -30 119 -3 11 -12 49
-21 84 -21 86 -25 103 -29 121 -1 8 -6 24 -11 35 -9 20 -19 20 -862 20 -468 0
-852 -3 -852 -7z"/>
<path d="M6414 9205 c-26 -104 -49 -194 -51 -200 -1 -5 -4 -21 -7 -34 -3 -13
-13 -49 -22 -80 -9 -31 -18 -65 -19 -76 -2 -11 -11 -47 -20 -80 -9 -33 -18
-67 -20 -75 -2 -8 -18 -71 -35 -140 -18 -69 -33 -132 -35 -140 -2 -8 -4 -15
-5 -15 -1 0 -3 -8 -5 -18 -2 -10 -15 -63 -30 -119 -15 -56 -29 -109 -31 -117
-2 -9 -13 -54 -25 -101 -11 -47 -23 -92 -24 -100 -2 -8 -4 -15 -5 -15 -2 0 -5
-12 -13 -50 -3 -11 -33 -128 -67 -260 -33 -132 -63 -247 -65 -255 -2 -8 -13
-53 -25 -100 -12 -47 -24 -94 -26 -106 -2 -12 -10 -40 -18 -63 -9 -22 -13 -41
-11 -41 2 0 -2 -21 -10 -47 -8 -27 -48 -181 -89 -343 -41 -162 -87 -340 -101
-395 -14 -55 -28 -107 -30 -115 -2 -8 -20 -80 -40 -160 -20 -80 -38 -152 -40
-160 -2 -8 -26 -103 -54 -210 -92 -359 -112 -435 -117 -460 -2 -14 -7 -32 -10
-40 -4 -12 -54 -205 -80 -310 -2 -8 -24 -94 -49 -190 -25 -96 -47 -186 -51
-200 -9 -42 -12 -55 -15 -55 -1 0 -3 -9 -5 -20 -2 -11 -8 -38 -14 -60 -6 -22
-12 -47 -15 -55 -12 -47 -117 -458 -120 -473 -2 -10 -7 -27 -10 -37 -3 -10 -8
-27 -10 -37 -2 -10 -11 -45 -20 -78 -22 -86 -25 -97 -31 -129 -2 -16 -7 -33
-10 -38 -5 -7 -9 -22 -20 -76 -2 -13 -20 -83 -40 -155 -19 -73 -37 -143 -40
-157 -3 -14 -11 -47 -19 -75 -17 -61 -171 -661 -180 -705 -2 -8 -4 -15 -5 -15
-1 0 -4 -11 -6 -25 -2 -14 -14 -59 -25 -100 -12 -41 -23 -82 -24 -90 -2 -8 -4
-15 -5 -15 -1 0 -3 -9 -4 -20 -3 -17 -70 -279 -138 -535 -10 -41 -22 -86 -24
-100 -3 -14 -21 -85 -40 -159 -20 -73 -37 -140 -39 -150 -2 -9 -13 -54 -25
-101 -12 -47 -23 -92 -25 -100 -2 -8 -11 -42 -20 -75 -17 -60 -21 -79 -29
-113 -2 -10 -18 -72 -36 -138 -17 -65 -33 -126 -35 -134 -2 -8 -13 -53 -24
-100 -12 -47 -24 -93 -26 -103 -2 -9 -7 -22 -10 -27 -4 -6 16 -10 52 -10 62
-1 1493 -1 1580 0 l52 0 12 43 c13 45 14 49 23 87 3 14 12 49 20 78 8 28 12
52 10 52 -2 0 1 12 7 28 11 25 84 307 95 362 3 14 8 34 11 45 4 11 8 25 9 30
1 6 10 39 19 75 9 36 18 75 21 87 2 12 9 34 14 48 5 14 7 25 5 25 -2 0 0 11 5
25 5 14 12 36 14 48 2 12 9 42 16 67 7 25 14 52 15 60 2 8 4 15 5 15 1 0 3 9
5 21 3 11 23 91 45 178 23 87 43 167 45 177 2 11 6 23 9 27 3 5 7 20 10 35 4
15 8 38 11 52 3 14 22 87 41 163 20 75 38 145 40 154 2 10 6 28 9 39 2 12 11
45 19 73 8 28 17 65 21 83 3 18 10 44 15 58 5 14 12 36 14 48 2 12 23 96 46
187 23 91 43 172 45 180 1 8 8 35 15 60 7 25 14 52 15 60 2 8 4 15 5 15 1 0 3
7 5 16 1 8 13 53 25 100 12 46 23 91 25 99 2 8 11 44 20 80 9 36 19 72 20 80
2 8 13 49 24 90 11 41 23 90 26 109 3 19 8 37 10 40 3 5 131 498 140 541 2 12
141 555 160 630 5 18 45 177 51 203 4 18 7 29 24 92 6 22 13 50 15 62 2 12 8
37 14 55 8 27 127 492 136 531 1 7 5 19 8 27 3 8 11 38 17 65 15 71 28 121 56
220 8 28 17 64 20 80 3 17 12 53 20 81 8 28 16 60 18 70 2 11 14 57 26 104 12
47 23 92 25 101 2 8 17 69 35 135 38 145 40 151 47 189 3 17 9 38 14 48 5 9 8
17 5 17 -3 0 0 15 5 33 10 31 58 217 64 247 2 8 4 16 5 18 2 1 3 5 4 10 6 21
17 70 21 87 2 11 34 135 70 275 36 140 67 264 69 275 3 11 5 20 6 20 1 0 99
382 106 415 2 14 8 34 11 45 4 11 7 22 8 25 0 3 7 28 14 56 7 29 14 60 16 70
2 11 4 19 5 19 2 0 5 14 14 53 3 12 7 25 9 30 3 4 8 23 11 42 3 19 14 65 25
103 11 37 20 70 20 72 1 3 2 7 2 10 1 3 2 8 3 13 1 4 8 30 15 58 7 29 13 58
14 65 2 8 6 20 10 27 5 6 6 12 3 12 -3 0 2 21 10 48 8 26 17 61 20 77 3 17 8
37 11 45 3 8 7 17 8 20 2 10 15 65 19 85 3 11 18 71 35 134 17 63 29 117 27
119 -3 2 -380 4 -838 5 l-835 2 -49 -190z"/>
</g>
</svg>
