<svg width="18" height="18" viewBox="0 0 18 18" fill="none" xmlns="http://www.w3.org/2000/svg">
    <path fill-rule="evenodd" clip-rule="evenodd" d="M5.28931 0.0541599C6.24926 0.0103604 6.55575 0 9.00002 0C11.4443 0 11.7507 0.0103604 12.7107 0.0541599C13.6686 0.0978523 14.3229 0.250007 14.8953 0.472506C15.4872 0.702472 15.9891 1.01021 16.4895 1.51055C16.9898 2.01092 17.2975 2.51283 17.5275 3.10466C17.75 3.67712 17.9021 4.33137 17.9458 5.28931C17.9896 6.24926 18 6.55575 18 9.00002C18 11.4443 17.9896 11.7507 17.9458 12.7107C17.9021 13.6686 17.75 14.3229 17.5275 14.8953C17.2975 15.4872 16.9898 15.9891 16.4895 16.4895C15.9891 16.9898 15.4872 17.2975 14.8953 17.5275C14.3229 17.75 13.6686 17.9021 12.7107 17.9458C11.7507 17.9896 11.4443 18 9.00002 18C6.55575 18 6.24926 17.9896 5.28931 17.9458C4.33137 17.9021 3.67712 17.75 3.10466 17.5275C2.51283 17.2975 2.01092 16.9898 1.51055 16.4895C1.01021 15.9891 0.702472 15.4872 0.472506 14.8953C0.250007 14.3229 0.0978523 13.6686 0.0541599 12.7107C0.0103604 11.7507 0 11.4443 0 9.00002C0 6.55575 0.0103604 6.24926 0.0541599 5.28931C0.0978523 4.33137 0.250007 3.67712 0.472506 3.10466C0.702472 2.51283 1.01021 2.01092 1.51055 1.51055C2.01092 1.01021 2.51283 0.702472 3.10466 0.472506C3.67712 0.250007 4.33137 0.0978523 5.28931 0.0541599ZM14.3079 1.98402C13.9908 1.86077 13.5143 1.71415 12.6368 1.67414C11.6878 1.63084 11.4031 1.62166 9.00001 1.62166C6.5969 1.62166 6.31224 1.63084 5.36322 1.67414C4.48573 1.71415 4.00919 1.86077 3.69205 1.98402C3.27196 2.14729 2.97215 2.34231 2.65723 2.65727C2.34227 2.97219 2.14724 3.272 1.98398 3.6921C1.86073 4.00923 1.71411 4.48578 1.6741 5.36327C1.6308 6.31228 1.62161 6.59694 1.62161 9.00006C1.62161 11.4031 1.6308 11.6878 1.6741 12.6368C1.71411 13.5143 1.86073 13.9908 1.98398 14.308C2.14724 14.7281 2.34231 15.0279 2.65723 15.3428C2.97215 15.6578 3.27196 15.8528 3.69205 16.0161C4.00919 16.1393 4.48573 16.2859 5.36322 16.3259C6.31213 16.3692 6.59672 16.3784 9.00001 16.3784C11.4033 16.3784 11.6879 16.3692 12.6368 16.3259C13.5143 16.2859 13.9908 16.1393 14.3079 16.0161C14.728 15.8528 15.0278 15.6578 15.3428 15.3428C15.6577 15.0279 15.8527 14.7281 16.016 14.308C16.1393 13.9908 16.2859 13.5143 16.3259 12.6368C16.3692 11.6878 16.3784 11.4031 16.3784 9.00006C16.3784 6.59694 16.3692 6.31228 16.3259 5.36327C16.2859 4.48578 16.1393 4.00923 16.016 3.6921C15.8527 3.272 15.6577 2.97219 15.3428 2.65727C15.0278 2.34231 14.728 2.14729 14.3079 1.98402ZM9.00003 4.37849C6.44754 4.37849 4.37839 6.44764 4.37839 9.00012C4.37839 11.5526 6.44754 13.6217 9.00003 13.6217C11.5525 13.6217 13.6216 11.5526 13.6216 9.00012C13.6216 6.44764 11.5525 4.37849 9.00003 4.37849ZM5.99998 9.00016C5.99998 10.657 7.34312 12.0001 9 12.0001C10.6568 12.0001 12 10.657 12 9.00016C12 7.34329 10.6568 6.00015 9 6.00015C7.34312 6.00015 5.99998 7.34329 5.99998 9.00016ZM13.8042 5.27581C14.4007 5.27581 14.8842 4.7923 14.8842 4.19583C14.8842 3.59935 14.4007 3.11581 13.8042 3.11581C13.2078 3.11581 12.7242 3.59935 12.7242 4.19583C12.7242 4.7923 13.2078 5.27581 13.8042 5.27581Z" fill="white"/>
</svg>
