<?xml version="1.0" encoding="utf-8"?>
<!-- Generator: Adobe Illustrator 22.1.0, SVG Export Plug-In . SVG Version: 6.00 Build 0)  -->
<svg version="1.1" id="Слой_1" xmlns="http://www.w3.org/2000/svg" xmlns:xlink="http://www.w3.org/1999/xlink" x="0px" y="0px"
     viewBox="0 0 530.9 164.1" style="enable-background:new 0 0 530.9 164.1;" xml:space="preserve">
<style type="text/css">
	.st0{fill:#FFFFFF;}
	.st1{opacity:0.45;fill:none;stroke:#FFFFFF;stroke-miterlimit:10;}
	.st2{fill:#D18B69;}
	.st3{opacity:0.45;fill:none;stroke:#B5B5B5;stroke-miterlimit:10;}
	.st4{fill:url(#SVGID_1_);}
	.st5{fill:url(#SVGID_2_);}
</style>
    <path class="st0" d="M1.7,101c-0.8-4.5,2.4-9.3,4.1-11.2l4.2-5.3l-6.7-7.7c-5.2-7.8-3.2-16.2-0.7-19.5c3.9-5.2,11.5-16.1,17.7-23.5
	c0.3-0.4,0.7-0.8,1-1.2c1-1.3,10.8-14.7,11.6-16c3.3-5.7,4.2-11.1,3.3-13.5c0.7,0.6,3.1,3.2,7.5,8.7c3.8,4.7,0.7,10-1.3,12.9
	c-0.3,0.5-9.4,12.7-7,9.8l0.1-0.1c0,0-0.1,0.1-0.1,0.1l-9.7,12.2L13.5,62.6c-2.9,6.1,2.1,9.8,4.2,11.8l11.1-14.7
	c3.2-4.2,10.7-14,15.6-20.1c4.8-6.1,7.9-11.8,7.5-13.8c9.5,9.2,6.3,16.7,4.3,19.4l-5.2,6.6c-10.4,13.4-31.2,40.1-36.7,47
	c-5.5,6.9-4.8,12.5-3.8,14.4C7.8,111,2.5,105.5,1.7,101z"/>
    <path class="st0" d="M1.7,101c-0.8-4.5,2.4-9.3,4.1-11.2l4.2-5.3l-6.7-7.7c-5.2-7.8-3.2-16.2-0.7-19.5c3.9-5.2,11.5-16.1,17.7-23.5
	c0.3-0.4,0.7-0.8,1-1.2c1-1.3,10.8-14.7,11.6-16c3.3-5.7,4.2-11.1,3.3-13.5c0.7,0.6,3.1,3.2,7.5,8.7c3.8,4.7,0.7,10-1.3,12.9
	c-0.3,0.5-9.4,12.7-7,9.8l0.1-0.1c0,0-0.1,0.1-0.1,0.1l-9.7,12.2L13.5,62.6c-2.9,6.1,2.1,9.8,4.2,11.8l11.1-14.7
	c3.2-4.2,10.7-14,15.6-20.1c4.8-6.1,7.9-11.8,7.5-13.8c9.5,9.2,6.3,16.7,4.3,19.4l-5.2,6.6c-10.4,13.4-31.2,40.1-36.7,47
	c-5.5,6.9-4.8,12.5-3.8,14.4C7.8,111,2.5,105.5,1.7,101z"/>
    <path class="st0" d="M81.8,70.6L63.4,43.3c0.8,4.5-2.4,10.3-4.2,12.6l-8.7,11.8C42.3,78.4,24.8,101,20.7,106c-4.1,5-5,8.8-4.9,10.1
	c0.8,6.2,5.8,11.9,8.2,14c-1.8-4.3,1.8-10.9,3.8-13.7l15.5-19.7L65,68l2.3,3.6c3.8,4.3,1.4,10,0.4,11.3l-8.7,11.4l-26.8,33.9
	c-1.7,1.9-2.5,3.3-2.6,3.8c-2.3,8.4,4.1,16.3,7.6,19.2c-2.4-5.7,2.1-12.6,4.7-15.4c10.2-13.4,32.2-41.9,38-49.1
	C85.8,79.5,83.6,73,81.8,70.6z"/>
    <g>
	<path class="st0" d="M156.8,8.4h-9.1v19.2c0,6.4,2,11.4,5.9,14.9l0,0c4,3.5,9.6,5.2,16.7,5.2c5,0,10.5-1.1,16.3-3.3V67h9.1V8.4
		h-9.1v27.6c-5.2,2.3-10.3,3.4-15.4,3.4c-4.7,0-8.3-1.1-10.8-3.3c-2.4-2.2-3.7-5.3-3.7-9.5V8.4z M231.8,22c-4.2,0-8.1,1-11.5,2.9
		c-3.4,1.9-6,4.6-8,8.1l0,0c-1.9,3.5-2.9,7.4-2.9,11.7c0,4.4,1,8.3,2.9,11.7l0,0c2,3.5,4.9,6.2,8.5,8.2l0,0
		c3.6,1.9,7.8,2.9,12.5,2.9c3.7,0,7-0.6,10-1.8c3-1.2,5.6-3,7.6-5.4l0.3-0.3l-5-5.9l-0.4,0.4c-3.1,3.4-7.1,5.1-12.2,5.1
		c-4.2,0-7.6-1.1-10.4-3.3c-2.6-2.2-4.2-4.9-4.7-8.4h35.2l0.1-0.4c0.1-1,0.2-1.8,0.2-2.4c0-4.5-0.9-8.4-2.9-11.9
		c-1.9-3.5-4.5-6.2-7.8-8.1C239.9,23,236.1,22,231.8,22z M286.6,22c-4.5,0-8.6,1-12.2,2.9c-3.5,1.9-6.3,4.6-8.3,8.1
		c-2,3.4-3,7.3-3,11.7c0,4.4,1,8.3,3,11.8l0,0c2,3.4,4.8,6.1,8.3,8.1l0,0c3.6,2,7.6,2.9,12.2,2.9c4,0,7.6-0.8,10.7-2.4l0,0
		c3.2-1.7,5.7-4.1,7.4-7.2l0.2-0.4l-6.8-4.3l-0.3,0.4c-1.3,2-3,3.5-4.9,4.5c-1.9,1-4.1,1.5-6.5,1.5c-2.8,0-5.3-0.6-7.5-1.8
		c-2.2-1.2-3.9-2.9-5.1-5.1c-1.2-2.3-1.8-4.9-1.8-7.9c0-2.9,0.6-5.5,1.8-7.7c1.3-2.3,3-4,5.1-5.2c2.2-1.2,4.7-1.8,7.5-1.8
		c2.4,0,4.6,0.5,6.5,1.5c1.9,1,3.6,2.5,4.9,4.5l0.3,0.4L305,32l-0.2-0.4c-1.7-3.1-4.2-5.5-7.4-7.1C294.2,22.8,290.6,22,286.6,22z
		 M349,22.4h-40.8v7.9h15.9V67h8.9V30.3H349V22.4z M367,22.4h-8.9V67l19.4,0.1c5.9,0.1,10.5-1.2,13.8-3.8v0c3.3-2.7,5-6.5,5-11.3
		c0-4.6-1.5-8.2-4.5-10.8c-3-2.6-7.4-3.8-13-3.9h0L367,37.1V22.4z M218.4,41.1c0.5-3.4,1.9-6.1,4.2-8.2c2.5-2.2,5.5-3.3,9.2-3.3
		c3.7,0,6.7,1.1,9.1,3.4l0,0c2.3,2.1,3.8,4.8,4.3,8.1H218.4z M367,60V43.9l9.8,0.2c3.6,0.1,6.2,0.7,7.8,2l0,0
		c1.6,1.2,2.5,3.1,2.5,5.8c0,2.8-0.9,4.8-2.6,6.2l0,0c-1.7,1.4-4.2,2.1-7.7,2l0,0L367,60z"/>
        <path class="st0" d="M501.9,84.9c-1.7,0-3.1,0.6-4.2,1.7c-1.1,1.1-1.6,2.4-1.6,4c0,1.6,0.5,2.9,1.6,4l0,0c1.1,1.1,2.6,1.6,4.2,1.6
		c1.7,0,3-0.5,4.1-1.6c1.1-1.1,1.7-2.5,1.7-4.1c0-1.6-0.6-2.9-1.7-3.9C504.9,85.5,503.5,84.9,501.9,84.9z"/>
        <polygon class="st0" points="195.8,89.6 145.2,89.6 145.2,148.1 154.4,148.1 154.4,97.8 186.7,97.8 186.7,148.1 195.8,148.1 	"/>
        <polygon class="st0" points="311.3,137.6 310.9,137.3 311.3,137.6 	"/>
        <polygon class="st0" points="303.1,145.7 303.1,145.7 302.8,145.2 303.1,145.7 	"/>
        <polygon class="st0" points="279.5,106.4 279.3,106.1 279.3,106.1 279.3,106.1 279.5,106.4 	"/>
        <path class="st0" d="M468.1,103.2c-4.5,0-8.6,1-12.2,2.9c-3.5,1.9-6.3,4.6-8.3,8.1c-2,3.4-3,7.3-3,11.7c0,4.4,1,8.3,3,11.8l0,0
		c2,3.4,4.8,6.1,8.3,8.1l0,0c3.6,2,7.6,2.9,12.2,2.9c4,0,7.6-0.8,10.7-2.4l0,0c3.2-1.7,5.7-4.1,7.4-7.2l0.2-0.4l-6.8-4.3l-0.3,0.4
		c-1.3,2-3,3.5-4.9,4.5c-1.9,1-4.1,1.5-6.5,1.5c-2.8,0-5.3-0.6-7.5-1.8c-2.2-1.2-3.9-2.9-5.1-5.1c-1.2-2.3-1.8-4.9-1.8-7.9
		c0-2.9,0.6-5.5,1.8-7.7c1.3-2.3,3-4,5.1-5.2c2.2-1.2,4.7-1.8,7.5-1.8c2.4,0,4.6,0.5,6.5,1.5c1.9,1,3.6,2.5,4.9,4.5l0.3,0.4l6.8-4.4
		l-0.2-0.4c-1.7-3.1-4.2-5.5-7.4-7.1C475.7,104,472.1,103.2,468.1,103.2z"/>
        <path class="st0" d="M432.4,114.2c-1.9-3.5-4.5-6.2-7.8-8.1c-3.3-2-7.1-2.9-11.3-2.9c-4.2,0-8.1,1-11.5,2.9c-3.4,1.9-6,4.6-8,8.1
		l0,0c-1.9,3.5-2.9,7.4-2.9,11.7c0,4.4,1,8.3,2.9,11.7l0,0c2,3.5,4.9,6.2,8.5,8.2l0,0c3.6,1.9,7.8,2.9,12.5,2.9c3.7,0,7-0.6,10-1.8
		c3-1.2,5.6-3,7.6-5.4l0.3-0.3l-5-5.9l-0.4,0.4c-3.1,3.4-7.1,5.1-12.2,5.1c-4.2,0-7.6-1.1-10.4-3.3c-2.6-2.2-4.2-4.9-4.7-8.4h35.2
		l0-0.4c0.1-1,0.2-1.8,0.2-2.4C435.3,121.6,434.4,117.7,432.4,114.2z M399.9,122.3c0.5-3.4,1.9-6.1,4.2-8.2c2.5-2.2,5.5-3.3,9.2-3.3
		c3.7,0,6.7,1.1,9.1,3.4l0,0c2.3,2.1,3.8,4.8,4.3,8.1H399.9z"/>
        <rect x="497.4" y="103.6" class="st0" width="8.9" height="44.5"/>
        <path class="st0" d="M256.6,114c-1.9-3.4-4.6-6.1-8-8c-3.4-1.9-7.3-2.9-11.6-2.9c-3.3,0-6.3,0.6-9.1,1.9c-2.3,1-4.3,2.5-5.9,4.4v-6
		h-8.6v60.5h8.9v-21.6c1.7,1.8,3.6,3.3,5.9,4.3l0,0c2.7,1.2,5.6,1.9,8.8,1.9c4.3,0,8.2-0.9,11.6-2.9c3.4-1.9,6.1-4.6,8-8
		c2-3.5,2.9-7.5,2.9-11.9C259.6,121.4,258.6,117.4,256.6,114z M248.7,133.7L248.7,133.7c-1.2,2.2-2.9,4-5.1,5.2
		c-2.1,1.2-4.5,1.8-7.2,1.8c-2.7,0-5.1-0.6-7.2-1.8c-2.2-1.3-3.9-3-5.1-5.2c-1.2-2.3-1.8-4.9-1.8-7.8c0-2.9,0.6-5.5,1.8-7.7
		c1.3-2.2,3-3.9,5.1-5.2l0,0c2.2-1.3,4.6-1.9,7.2-1.9c2.7,0,5.1,0.6,7.2,1.8l0,0c2.2,1.2,3.8,2.9,5.1,5.2l0,0
		c1.3,2.2,1.9,4.8,1.9,7.7S250,131.4,248.7,133.7z"/>
        <path class="st0" d="M311.3,114.2c-2-3.5-4.7-6.2-8.2-8.1c-3.5-2-7.4-2.9-11.8-2.9c-4.4,0-8.4,1-11.9,2.9c-3.5,1.9-6.3,4.6-8.3,8.1
		l0,0c-2,3.4-2.9,7.3-2.9,11.7c0,4.4,1,8.3,2.9,11.7l0,0c2,3.4,4.8,6.1,8.3,8.1c3.5,2,7.5,2.9,11.9,2.9c4.4,0,8.4-1,11.8-2.9
		c3.5-2,6.3-4.7,8.2-8.1c2-3.5,3-7.4,3-11.8C314.3,121.5,313.3,117.6,311.3,114.2z M303.5,133.7c-1.2,2.2-2.9,4-5.1,5.2
		c-2.1,1.2-4.5,1.8-7.2,1.8c-2.7,0-5.1-0.6-7.3-1.8c-2.1-1.3-3.8-3-5.1-5.2c-1.2-2.3-1.8-4.9-1.8-7.8c0-2.9,0.6-5.5,1.8-7.7
		c1.3-2.3,3-4,5.1-5.2c2.2-1.2,4.6-1.8,7.3-1.8c2.7,0,5.1,0.6,7.2,1.8l0,0c2.2,1.2,3.8,2.9,5.1,5.2l0,0c1.2,2.2,1.8,4.8,1.8,7.7
		C305.4,128.8,304.7,131.4,303.5,133.7z"/>
        <path class="st0" d="M375.8,109.7c-4.5-3.9-10.8-6-18.8-6.5v-17h-8.7v17c-8.1,0.5-14.3,2.6-18.8,6.4c-4.6,3.9-6.8,9.3-6.8,16.2
		c0,6.9,2.3,12.4,6.8,16.4l0,0c4.5,3.9,10.8,6,18.8,6.5v15.4h8.7v-15.4c8-0.5,14.3-2.7,18.8-6.6c4.6-4,6.9-9.5,6.9-16.3
		C382.7,119,380.4,113.6,375.8,109.7z M348.3,140.7c-5.6-0.4-9.8-1.9-12.6-4.4c-2.8-2.5-4.3-6-4.3-10.6c0-4.4,1.4-7.8,4.3-10.3
		c2.8-2.4,6.9-3.8,12.6-4.3V140.7z M369.6,136.3c-2.8,2.4-7,3.9-12.6,4.4v-29.6c5.6,0.4,9.8,1.9,12.6,4.3l0,0
		c2.9,2.4,4.3,5.8,4.3,10.3C373.9,130.4,372.5,133.9,369.6,136.3z"/>
        <path class="st0" d="M525,67.9c-1.7,0-3.1,0.6-4.2,1.7c-1.1,1.1-1.6,2.4-1.6,4c0,1.6,0.5,2.9,1.6,4l0,0c1.1,1.1,2.6,1.6,4.2,1.6
		c1.7,0,3-0.5,4.1-1.6c1.1-1.1,1.7-2.5,1.7-4.1c0-1.6-0.6-2.9-1.7-3.9C528.1,68.5,526.7,67.9,525,67.9z M520.8,86.7
		c1.1-1.1,2.6-1.7,4.2-1.7c1.6,0,3,0.5,4.1,1.6c1.1,1,1.7,2.3,1.7,3.9c0,1.6-0.6,3-1.7,4.1c-1.1,1.1-2.5,1.6-4.1,1.6
		c-1.7,0-3.1-0.5-4.2-1.6l0,0c-1.1-1.1-1.6-2.4-1.6-4C519.2,89.1,519.7,87.8,520.8,86.7z M520.6,148.2v-44.5h8.9v44.5H520.6z"/>
</g>
    <path class="st0" d="M81.8,70.6L63.4,43.3c0.8,4.5-2.4,10.3-4.2,12.6l-8.7,11.8C42.3,78.4,24.8,101,20.7,106c-4.1,5-5,8.8-4.9,10.1
	c0.8,6.2,5.8,11.9,8.2,14c-1.8-4.3,1.8-10.9,3.8-13.7l15.5-19.7L65,68l2.3,3.6c3.8,4.3,1.4,10,0.4,11.3l-8.7,11.4l-26.8,33.9
	c-1.7,1.9-2.5,3.3-2.6,3.8c-2.3,8.4,4.1,16.3,7.6,19.2c-2.4-5.7,2.1-12.6,4.7-15.4c10.2-13.4,32.2-41.9,38-49.1
	C85.8,79.5,83.6,73,81.8,70.6z"/>
    <line class="st1" x1="111.2" y1="0" x2="111.2" y2="157"/>
</svg>
