<svg width="451" height="720" viewBox="0 0 451 720" fill="none" xmlns="http://www.w3.org/2000/svg">
    <g opacity="0.11">
        <path d="M174.023 -160.394L174.516 -160.479L174.023 -160.394ZM189.347 -209.575L189.709 -209.231L189.718 -209.24L189.726 -209.25L189.347 -209.575ZM211.831 -102.688L212.328 -102.742L212.309 -102.92L212.18 -103.046L211.831 -102.688ZM192.806 -39.316L192.375 -39.5698L192.806 -39.316ZM132.318 42.9366L131.923 42.6297L132.318 42.9366ZM127.218 49.2208L126.837 48.8977L126.837 48.8977L127.218 49.2208ZM19.1367 185.081L19.5339 185.385L19.1367 185.081ZM21.9233 286.053L21.5051 286.327L21.5233 286.354L21.545 286.379L21.9233 286.053ZM56.453 326.023L56.8939 326.259L57.0559 325.956L56.8314 325.697L56.453 326.023ZM49.9095 338.259L50.272 338.603L50.3185 338.554L50.3504 338.495L49.9095 338.259ZM28.1545 395.905L27.6619 395.991L28.1545 395.905ZM72.2885 459.489L71.9589 459.865L72.7303 459.255L72.2885 459.489ZM92.6383 385.368L93.0261 385.684L92.6383 385.368ZM284.705 143.828L284.315 143.515L284.313 143.518L284.705 143.828ZM311.805 110.093L312.194 110.406L312.2 110.399L312.206 110.391L311.805 110.093ZM290.685 9.42283L291.037 9.06759L289.948 7.98875L290.191 9.50227L290.685 9.42283ZM251.225 80.6142L251.613 80.9288L251.225 80.6142ZM169.846 183.643L170.235 183.957L170.241 183.95L169.846 183.643ZM96.6592 273.942L96.3087 274.298L96.7012 274.684L97.0476 274.257L96.6592 273.942ZM93.2859 270.73L92.9437 271.095L93.2859 270.73ZM75.5358 212.589L75.1478 212.274L75.1101 212.32L75.0844 212.374L75.5358 212.589ZM154.146 115.857L154.534 116.173L154.534 116.172L154.146 115.857ZM204.979 53.0672L205.368 53.3818L204.591 52.7519L204.979 53.0672ZM234.941 12.0133L235.341 12.3128L234.941 12.0133ZM241.781 2.84734L242.188 3.13767L241.781 2.84734ZM249.07 -63.6397L249.461 -63.9505L249.07 -63.6397ZM215.832 -103.293L215.345 -103.178L215.375 -103.05L215.464 -102.954L215.832 -103.293ZM238.507 -170.931L238.895 -170.615L238.901 -170.622L238.906 -170.63L238.507 -170.931ZM248.516 -184.217L248.915 -183.916L248.917 -183.919L248.516 -184.217ZM228.807 -277.949L229.159 -278.305L228.069 -279.383L228.313 -277.87L228.807 -277.949ZM206.252 -229.299L206.632 -228.973L206.636 -228.979L206.641 -228.984L206.252 -229.299ZM174.516 -160.479C170.471 -183.771 180.821 -199.875 189.709 -209.231L188.984 -209.92C179.968 -200.43 169.412 -184.021 173.531 -160.308L174.516 -160.479ZM212.18 -103.046C205.225 -109.836 196.669 -119.204 189.418 -129.381C182.161 -139.567 176.246 -150.517 174.516 -160.479L173.531 -160.308C175.299 -150.125 181.318 -139.027 188.604 -128.8C195.897 -118.563 204.496 -109.151 211.482 -102.33L212.18 -103.046ZM193.237 -39.0622C208.235 -64.5203 213.869 -88.5086 212.328 -102.742L211.334 -102.634C212.843 -88.6941 207.313 -64.9253 192.375 -39.5698L193.237 -39.0622ZM132.713 43.2434C135.275 39.9467 149.441 21.0081 163.442 2.08455C170.444 -7.37862 177.406 -16.8407 182.858 -24.345C188.3 -31.8348 192.261 -37.4056 193.237 -39.0622L192.375 -39.5698C191.431 -37.9663 187.51 -32.4482 182.049 -24.9328C176.599 -17.4319 169.639 -7.97246 162.638 1.4898C148.634 20.4171 134.477 39.3446 131.923 42.6297L132.713 43.2434ZM127.6 49.5439C129.372 47.4508 131.076 45.3492 132.713 43.2434L131.923 42.6297C130.295 44.7245 128.6 46.8153 126.837 48.8977L127.6 49.5439ZM19.5339 185.385C39.918 158.717 95.1861 87.8295 127.6 49.5439L126.837 48.8977C94.4058 87.2035 39.1251 158.108 18.7395 184.777L19.5339 185.385ZM22.3416 285.779C-3.97443 245.613 6.7048 202.168 19.5339 185.385L18.7395 184.777C5.67105 201.874 -5.05972 245.781 21.5051 286.327L22.3416 285.779ZM56.8314 325.697L22.3017 285.726L21.545 286.379L56.0747 326.35L56.8314 325.697ZM50.3504 338.495L56.8939 326.259L56.0121 325.788L49.4686 338.023L50.3504 338.495ZM28.6471 395.82C26.6305 384.209 29.7898 372.262 34.5968 362.015C39.4021 351.771 45.8295 343.279 50.272 338.603L49.547 337.915C45.037 342.662 38.546 351.241 33.6914 361.59C28.8386 371.935 25.5966 384.1 27.6619 395.991L28.6471 395.82ZM72.618 459.113C66.134 453.431 56.1439 443.434 47.2691 431.93C38.3839 420.412 30.6664 407.447 28.6471 395.82L27.6619 395.991C29.7244 407.867 37.5686 420.992 46.4773 432.54C55.3964 444.102 65.4323 454.146 71.9589 459.865L72.618 459.113ZM92.2504 385.053C63.2747 420.664 66.4771 449.585 71.8466 459.723L72.7303 459.255C67.596 449.561 64.2333 421.07 93.0261 385.684L92.2504 385.053ZM284.313 143.518C230.06 212.205 121.132 349.558 92.2504 385.053L93.0261 385.684C121.913 350.182 230.847 212.822 285.098 144.138L284.313 143.518ZM311.415 109.78L284.315 143.515L285.095 144.141L312.194 110.406L311.415 109.78ZM290.333 9.77806C314.572 33.7883 322.426 55.2817 322.948 72.496C323.469 89.7217 316.65 102.741 311.403 109.794L312.206 110.391C317.547 103.212 324.478 89.9765 323.947 72.4657C323.417 54.9435 315.417 33.2183 291.037 9.06759L290.333 9.77806ZM251.613 80.9288C264.269 65.2889 274.57 50.0665 281.501 37.4429C284.967 31.1319 287.595 25.4607 289.253 20.705C290.904 15.9689 291.618 12.0725 291.178 9.34338L290.191 9.50227C290.589 11.9732 289.949 15.6703 288.308 20.3758C286.675 25.0618 284.074 30.6802 280.625 36.9616C273.728 49.523 263.462 64.6962 250.836 80.2997L251.613 80.9288ZM170.241 183.95C186.833 162.625 226.335 112.168 251.613 80.9288L250.836 80.2997C225.551 111.547 186.044 162.011 169.452 183.335L170.241 183.95ZM97.0476 274.257L170.235 183.957L169.458 183.328L96.2708 273.627L97.0476 274.257ZM92.9437 271.095C94.1642 272.24 95.2988 273.306 96.3087 274.298L97.0097 273.585C95.9901 272.583 94.8465 271.509 93.6281 270.366L92.9437 271.095ZM75.0844 212.374C68.1883 226.849 69.6623 238.754 74.3836 248.441C79.0882 258.094 87.0088 265.523 92.9437 271.095L93.6281 270.366C87.6762 264.778 79.8947 257.466 75.2825 248.003C70.687 238.574 69.2293 226.988 75.9872 212.804L75.0844 212.374ZM153.758 115.542L75.1478 212.274L75.9238 212.905L154.534 116.173L153.758 115.542ZM204.59 52.7526L153.757 115.543L154.534 116.172L205.368 53.3818L204.59 52.7526ZM234.541 11.7138C227.991 20.4679 218.115 33.6664 211.07 43.2096C207.548 47.9789 204.729 51.8422 203.385 53.7803C203.05 54.2633 202.8 54.6361 202.654 54.8758C202.59 54.9816 202.518 55.1037 202.483 55.2031C202.474 55.2275 202.453 55.2892 202.448 55.367C202.446 55.4094 202.434 55.705 202.723 55.8533C202.847 55.9171 202.963 55.9136 203.028 55.9043C203.094 55.8949 203.144 55.8746 203.172 55.8619C203.228 55.8367 203.271 55.8061 203.292 55.79C203.375 55.7279 203.474 55.6261 203.571 55.5209C203.678 55.4052 203.815 55.2507 203.98 55.0576C204.311 54.6707 204.77 54.1171 205.367 53.3825L204.591 52.7519C203.996 53.4841 203.544 54.0299 203.221 54.4069C203.059 54.5957 202.932 54.7392 202.837 54.8415C202.79 54.8927 202.753 54.9311 202.725 54.9585C202.694 54.9888 202.685 54.9954 202.691 54.9907C202.692 54.9901 202.717 54.9703 202.76 54.9511C202.781 54.9415 202.826 54.9231 202.887 54.9144C202.947 54.9058 203.059 54.9018 203.18 54.964C203.462 55.1091 203.448 55.3968 203.446 55.4268C203.442 55.4921 203.425 55.5368 203.424 55.5398C203.42 55.5532 203.434 55.5173 203.508 55.3969C203.637 55.1843 203.872 54.8325 204.207 54.3501C205.54 52.4265 208.351 48.5758 211.874 43.8035C218.918 34.2635 228.791 21.0678 235.341 12.3128L234.541 11.7138ZM241.374 2.55701C241.006 3.07255 238.335 6.64272 234.541 11.7138L235.341 12.3128C239.128 7.25206 241.811 3.66557 242.188 3.13767L241.374 2.55701ZM248.678 -63.3289C258.338 -51.1559 259.167 -38.4308 256.261 -26.8716C253.348 -15.2888 246.684 -4.8896 241.374 2.55701L242.188 3.13767C247.513 -4.3293 254.27 -14.8549 257.23 -26.6278C260.197 -38.4243 259.353 -51.486 249.461 -63.9505L248.678 -63.3289ZM215.464 -102.954C221.684 -96.1922 232.628 -83.553 248.678 -63.3289L249.461 -63.9505C233.402 -84.1872 222.441 -96.8462 216.2 -103.631L215.464 -102.954ZM238.119 -171.246C213.976 -141.574 212.178 -116.56 215.345 -103.178L216.318 -103.408C213.234 -116.443 214.916 -141.145 238.895 -170.615L238.119 -171.246ZM248.117 -184.518L238.108 -171.231L238.906 -170.63L248.915 -183.916L248.117 -184.518ZM228.455 -277.594C252.705 -253.572 260.193 -233.816 260.364 -218.355C260.536 -202.886 253.387 -191.603 248.115 -184.516L248.917 -183.919C254.233 -191.064 261.539 -202.567 261.364 -218.366C261.189 -234.172 253.528 -254.165 229.159 -278.305L228.455 -277.594ZM206.641 -228.984C219.286 -244.611 225.386 -254.225 228.104 -261.26C230.841 -268.344 230.141 -272.805 229.3 -278.029L228.313 -277.87C229.146 -272.694 229.81 -268.451 227.171 -261.62C224.514 -254.741 218.501 -245.23 205.863 -229.613L206.641 -228.984ZM189.726 -209.25L206.632 -228.973L205.873 -229.624L188.967 -209.901L189.726 -209.25Z" fill="white"/>
        <path d="M435.842 244.453L435.425 244.729L435.434 244.742L435.443 244.754L435.842 244.453ZM341.827 102.486L342.244 102.209L341.335 102.571L341.827 102.486ZM425.743 328.055L426.127 328.374L425.743 328.055ZM226.8 580.307L227.163 580.651L227.18 580.633L227.195 580.614L226.8 580.307ZM199.801 653.162L199.315 653.279L199.348 653.416L199.448 653.516L199.801 653.162ZM236.129 709.408L236.621 709.322L236.129 709.408ZM220.805 758.59L220.443 758.245L220.434 758.254L220.426 758.264L220.805 758.59ZM203.9 778.313L203.52 777.987L203.515 777.993L203.511 777.998L203.9 778.313ZM181.345 826.963L180.993 827.319L182.082 828.397L181.839 826.884L181.345 826.963ZM161.636 733.231L161.236 732.93L161.235 732.933L161.636 733.231ZM171.645 719.945L171.257 719.629L171.251 719.636L171.245 719.644L171.645 719.945ZM194.374 652.537L194.861 652.425L194.83 652.291L194.735 652.191L194.374 652.537ZM163.687 559.865L163.214 559.704L163.209 559.717L163.206 559.73L163.687 559.865ZM177.357 540.264L177.728 540.6L177.738 540.589L177.747 540.578L177.357 540.264ZM317.356 366.269L317.746 366.582L317.752 366.574L317.356 366.269ZM362.629 307.613L362.24 307.299L362.233 307.308L362.629 307.613ZM360.947 249.153L360.526 249.423L360.545 249.453L360.568 249.48L360.947 249.153ZM348.969 230.487L349.39 230.217L349.005 229.618L348.572 230.183L348.969 230.487ZM235.747 378.036L236.137 378.35L236.144 378.341L235.747 378.036ZM154.449 479.242L154.059 478.929L154.054 478.937L154.048 478.944L154.449 479.242ZM134.261 549.719L133.932 550.095L134.722 549.526L134.261 549.719ZM92.6607 477.098L92.1616 477.129L92.1624 477.142L92.1639 477.155L92.6607 477.098ZM118.435 425.066L118.054 424.743L118.435 425.066ZM274.396 227.899L274.79 228.206L274.796 228.199L274.396 227.899ZM319.75 167.421L319.352 167.117L319.35 167.121L319.75 167.421ZM436.259 244.177L342.244 102.209L341.41 102.762L435.425 244.729L436.259 244.177ZM426.127 328.374C456.946 291.278 445.77 256.808 436.242 244.152L435.443 244.754C444.726 257.085 455.846 291.038 425.358 327.735L426.127 328.374ZM227.195 580.614C280.74 511.9 395.48 365.264 426.127 328.374L425.358 327.735C394.698 364.64 279.945 511.293 226.406 579.999L227.195 580.614ZM200.287 653.045C196.934 639.127 200.526 624.31 206.545 611.302C212.56 598.3 220.972 587.167 227.163 580.651L226.438 579.962C220.182 586.547 211.704 597.769 205.637 610.882C199.572 623.99 195.888 639.051 199.315 653.279L200.287 653.045ZM199.448 653.516C206.363 660.409 214.58 669.587 221.486 679.461C228.399 689.344 233.966 699.879 235.636 709.493L236.621 709.322C234.914 699.493 229.248 688.813 222.306 678.888C215.357 668.953 207.098 659.73 200.154 652.808L199.448 653.516ZM235.636 709.493C239.681 732.785 229.331 748.889 220.443 758.245L221.168 758.934C230.184 749.444 240.74 733.035 236.621 709.322L235.636 709.493ZM220.426 758.264L203.52 777.987L204.279 778.638L221.185 758.915L220.426 758.264ZM203.511 777.998C190.866 793.625 184.765 803.239 182.048 810.274C179.311 817.358 180.011 821.819 180.851 827.043L181.839 826.884C181.006 821.708 180.342 817.465 182.98 810.634C185.638 803.755 191.651 794.244 204.288 778.627L203.511 777.998ZM181.697 826.608C157.446 802.586 149.959 782.83 149.788 767.369C149.616 751.9 156.765 740.617 162.037 733.53L161.235 732.933C155.919 740.078 148.612 751.581 148.788 767.38C148.963 783.186 156.624 803.179 180.993 827.319L181.697 826.608ZM162.035 733.532L172.044 720.246L171.245 719.644L161.236 732.93L162.035 733.532ZM172.033 720.26C196.037 690.76 197.952 665.864 194.861 652.425L193.887 652.649C196.898 665.742 195.098 690.329 171.257 719.629L172.033 720.26ZM163.206 559.73C152.551 597.734 176.01 634.064 194.013 652.882L194.735 652.191C176.795 633.438 153.664 597.469 164.169 560L163.206 559.73ZM176.987 539.929C167.99 549.862 164.062 557.208 163.214 559.704L164.161 560.026C164.947 557.712 168.776 550.484 177.728 540.6L176.987 539.929ZM316.967 365.955L176.968 539.951L177.747 540.578L317.746 366.582L316.967 365.955ZM362.233 307.308L316.96 365.963L317.752 366.574L363.025 307.919L362.233 307.308ZM360.568 249.48C370.195 260.634 371.919 273.467 370.574 284.348C369.227 295.249 364.806 304.128 362.24 307.299L363.018 307.928C365.718 304.59 370.2 295.528 371.567 284.47C372.936 273.392 371.185 260.25 361.325 248.827L360.568 249.48ZM348.548 230.757L360.526 249.423L361.368 248.883L349.39 230.217L348.548 230.757ZM236.144 378.341L349.366 230.791L348.572 230.183L235.35 377.732L236.144 378.341ZM154.839 479.556L236.137 378.349L235.357 377.723L154.059 478.929L154.839 479.556ZM134.722 549.526C130.168 538.597 132.511 524.691 137.38 511.66C142.242 498.65 149.579 486.627 154.85 479.541L154.048 478.944C148.732 486.091 141.344 498.195 136.444 511.31C131.551 524.402 129.093 538.618 133.799 549.911L134.722 549.526ZM92.1639 477.155C94.0236 493.385 101.385 508.923 109.806 521.737C118.228 534.554 127.735 544.681 133.932 550.095L134.59 549.342C128.46 543.986 119.013 533.928 110.641 521.188C102.268 508.447 94.9927 493.059 93.1574 477.041L92.1639 477.155ZM118.054 424.743C107.216 437.543 100.641 448.917 96.8263 457.946C93.017 466.962 91.9477 473.668 92.1616 477.129L93.1597 477.067C92.959 473.821 93.9695 467.277 97.7474 458.335C101.52 449.408 108.039 438.119 118.817 425.389L118.054 424.743ZM274.002 227.591C231.017 282.681 139.66 399.222 118.054 424.743L118.817 425.389C140.44 399.849 231.814 283.285 274.79 228.206L274.002 227.591ZM319.35 167.121L273.996 227.599L274.796 228.199L320.15 167.721L319.35 167.121ZM341.335 102.571C343.352 114.185 340.138 127.35 335.255 139.131C330.376 150.901 323.859 161.222 319.352 167.117L320.147 167.725C324.7 161.768 331.263 151.372 336.179 139.513C341.09 127.665 344.385 114.289 342.32 102.4L341.335 102.571Z" fill="white"/>
    </g>
</svg>
