<svg width="917" height="555" viewBox="0 0 917 555" fill="none" xmlns="http://www.w3.org/2000/svg">
    <g opacity="0.04">
        <path fill-rule="evenodd" clip-rule="evenodd" d="M354.514 -213.065C344.934 -202.982 333.749 -185.586 338.117 -160.437C341.861 -138.88 363.656 -113.253 378.574 -98.6878C380.206 -83.6142 374.233 -58.0628 358.216 -30.8762C354.106 -23.8991 298.964 50.0968 293.489 57.1399C291.742 59.3872 289.924 61.6304 288.032 63.8644C253.338 104.843 194.191 180.707 172.378 209.244C158.522 227.371 147.066 274.108 175.36 317.291L212.309 360.063L205.307 373.155C195.727 383.238 177.659 409.692 182.027 434.841C186.395 459.99 215.332 490.679 229.254 502.88C223.634 492.269 220.121 461.552 251.029 423.566C281.938 385.58 398.501 238.599 456.555 165.101L485.553 129.002C496.882 113.772 514.98 72.8133 462.953 21.2778C464.744 32.4066 447.781 64.025 420.728 97.4576C393.675 130.89 351.402 184.886 333.647 207.705L255.332 304.331C254.246 303.264 253.027 302.12 251.723 300.895C239.003 288.953 218.118 269.347 232.729 238.68L316.847 135.17L371.242 67.9804C361.039 80.5369 389.286 42.7848 403.304 24.0491C407.359 18.6286 410.224 14.7998 410.622 14.2416C422.003 -1.717 439.344 -30.5403 418.422 -56.9042C401.242 -78.5523 389.523 -92.0878 382.855 -99.3358C379.51 -113.47 381.372 -140.07 407.119 -171.712L417.83 -185.93C429.159 -201.16 448.766 -234.694 396.739 -286.23C398.53 -275.101 399.658 -267.603 372.604 -234.17L354.514 -213.065Z" fill="white"/>
        <path fill-rule="evenodd" clip-rule="evenodd" d="M517.68 120.86L618.282 272.775C628.347 286.144 640.276 322.753 607.475 362.235C574.674 401.718 451.886 558.637 394.593 632.162C381.274 646.181 358.447 680.004 365.701 710.123C380.533 724.907 400.961 749.504 404.575 770.31C408.943 795.459 397.757 812.855 388.177 822.938L370.087 844.043C343.034 877.475 344.161 884.974 345.952 896.103C293.926 844.567 313.532 811.033 324.862 795.803L335.573 781.585C361.172 750.124 363.159 723.649 359.894 709.453C340.663 689.352 315.736 650.669 327.057 610.289C327.932 607.715 332.082 599.917 341.685 589.314L491.494 403.127L539.939 340.362C545.575 333.396 558.991 301.964 538.139 277.805L525.322 257.831L404.166 415.719L317.172 524.016C305.842 539.247 285.66 575.652 295.569 599.431C282.378 587.906 255.008 556.23 251.054 521.721C250.61 514.545 255.505 493.363 278.634 466.044C301.764 438.724 399.531 314.006 445.524 255.061L494.055 190.346C503.75 177.663 522.048 146.01 517.68 120.86Z" fill="white"/>
    </g>
    <g opacity="0.08">
        <path d="M86.736 520.443L87.0955 520.791L87.1424 520.742L87.1748 520.683L86.736 520.443ZM63.4181 580.645L63.9114 580.564L63.4181 580.645ZM109.082 647.667L108.749 648.04L109.526 647.436L109.082 647.667ZM131.077 570.191L131.462 570.51L131.077 570.191ZM334.249 320.292L334.64 320.603L334.641 320.602L334.249 320.292ZM341.999 178.092L342.354 177.739L341.274 176.651L341.505 178.167L341.999 178.092ZM297.733 252.023L297.36 251.69L297.733 252.023ZM214.646 359.67L215.03 359.991L215.038 359.981L214.646 359.67ZM136.303 453.48L135.949 453.833L136.336 454.22L136.687 453.8L136.303 453.48ZM112.612 386.888L112.226 386.569L112.188 386.616L112.162 386.669L112.612 386.888ZM93.7033 507.683L94.1421 507.923L94.3067 507.621L94.0844 507.359L93.7033 507.683ZM195.855 286.251L196.24 286.57L196.245 286.564L196.25 286.558L195.855 286.251ZM244.677 223.412L245.071 223.719L244.29 223.095L244.677 223.412ZM302.496 98.0216L302.102 98.329L302.496 98.0216ZM259.082 53.5161L259.424 53.152L258.609 53.6795L259.082 53.5161ZM163.707 218.649L163.328 218.323L163.707 218.649ZM55.8859 359.67L56.2952 359.957L55.8859 359.67ZM57.8879 465.489L57.4673 465.76L57.4852 465.788L57.5067 465.813L57.8879 465.489ZM363.212 283.761L363.604 284.072L363.611 284.063L363.212 283.761ZM236.738 126.566L237.138 126.866L237.154 126.846L237.167 126.824L236.738 126.566ZM176.937 202.244L176.545 201.934L176.937 202.244ZM288.072 169.433L288.477 169.726L288.072 169.433ZM86.3765 520.096C81.6096 525.027 74.7322 533.955 69.5529 544.751C64.3754 555.544 60.87 568.255 62.9247 580.726L63.9114 580.564C61.9029 568.373 65.3237 555.879 70.4545 545.184C75.5836 534.493 82.3967 525.651 87.0955 520.791L86.3765 520.096ZM62.9247 580.726C64.9768 593.182 73.0733 607.002 82.302 619.182C91.5408 631.375 101.964 641.989 108.749 648.04L109.415 647.293C102.672 641.28 92.2942 630.714 83.099 618.578C73.8937 606.429 65.9225 592.77 63.9114 580.564L62.9247 580.726ZM109.526 647.436C104.229 637.222 100.968 607.329 131.462 570.51L130.692 569.872C100.013 606.915 103.11 637.237 108.638 647.897L109.526 647.436ZM131.462 570.51C162.05 533.577 276.953 393.109 334.64 320.603L333.858 319.98C276.176 392.479 161.277 532.942 130.692 569.872L131.462 570.51ZM341.505 178.167C341.901 180.769 341.261 184.541 339.554 189.316C337.852 194.074 335.11 199.771 331.368 206.197C323.885 219.047 312.425 234.775 297.36 251.69L298.106 252.356C313.206 235.402 324.709 219.62 332.232 206.7C335.994 200.24 338.766 194.487 340.495 189.652C342.219 184.834 342.927 180.87 342.493 178.016L341.505 178.167ZM297.36 251.69C283.338 267.434 266.95 288.813 251.877 309.02C236.795 329.238 223.038 348.271 214.254 359.36L215.038 359.981C223.833 348.877 237.614 329.812 252.678 309.617C267.751 289.411 284.117 268.063 298.106 252.356L297.36 251.69ZM214.263 359.35L135.919 453.159L136.687 453.8L215.03 359.991L214.263 359.35ZM136.657 453.126C130.952 447.421 121.089 439.083 114.617 428.045C108.169 417.049 105.118 403.412 113.061 387.107L112.162 386.669C104.044 403.335 107.174 417.328 113.754 428.551C120.311 439.734 130.324 448.207 135.949 453.833L136.657 453.126ZM87.1748 520.683L94.1421 507.923L93.2644 507.443L86.2971 520.204L87.1748 520.683ZM112.997 387.207L196.24 286.57L195.47 285.932L112.226 386.569L112.997 387.207ZM196.25 286.558L245.071 223.719L244.282 223.106L195.46 285.944L196.25 286.558ZM302.89 97.7142C279.399 67.5791 262.932 56.4531 259.424 53.152L258.739 53.8802C262.334 57.2637 278.673 68.2745 302.102 98.329L302.89 97.7142ZM163.328 218.323C128.993 258.172 74.9634 331.622 55.4767 359.383L56.2952 359.957C75.7763 332.205 129.783 258.787 164.086 218.976L163.328 218.323ZM55.4767 359.383C42.5499 377.798 30.0005 423.034 57.4673 465.76L58.3084 465.219C31.1026 422.899 43.5548 378.107 56.2952 359.957L55.4767 359.383ZM94.0844 507.359L58.269 465.166L57.5067 465.813L93.3221 508.007L94.0844 507.359ZM334.641 320.602L363.604 284.072L362.821 283.451L333.857 319.981L334.641 320.602ZM363.611 284.063C369.27 276.592 376.649 262.793 376.253 244.448C375.857 226.092 367.676 203.262 342.354 177.739L341.644 178.444C366.826 203.824 374.864 226.421 375.253 244.47C375.643 262.53 368.378 276.114 362.814 283.459L363.611 284.063ZM258.609 53.6795C260.809 60.0405 259.895 70.4668 256.066 83.2304C252.245 95.9643 245.551 110.929 236.31 126.309L237.167 126.824C246.443 111.386 253.175 96.3453 257.024 83.5178C260.863 70.7202 261.863 60.0299 259.554 53.3527L258.609 53.6795ZM236.338 126.266C228.405 136.844 182.902 193.9 176.545 201.934L177.329 202.554C183.673 194.537 229.195 137.457 237.138 126.866L236.338 126.266ZM176.545 201.934C174.812 204.123 165.19 216.162 163.328 218.323L164.086 218.976C165.965 216.795 175.603 204.736 177.329 202.554L176.545 201.934ZM244.29 223.095C243.365 224.222 242.719 225.005 242.32 225.484C242.12 225.724 241.985 225.885 241.908 225.973C241.864 226.025 241.853 226.036 241.86 226.029C241.863 226.027 241.872 226.018 241.878 226.013C241.888 226.004 241.924 225.977 241.949 225.961C242.029 225.923 242.414 225.938 242.636 226.141C242.697 226.311 242.681 226.54 242.664 226.585C242.656 226.604 242.641 226.631 242.636 226.64C242.634 226.645 242.628 226.654 242.627 226.656C242.624 226.66 242.623 226.662 242.625 226.659C242.743 226.493 243.724 225.263 245.351 223.24C248.585 219.217 254.305 212.136 260.544 204.415C273.011 188.986 287.576 170.966 288.477 169.726L287.668 169.139C286.787 170.35 272.253 188.333 259.766 203.787C253.528 211.507 247.807 218.589 244.571 222.614C242.963 224.615 241.951 225.881 241.81 226.078C241.805 226.087 241.797 226.097 241.789 226.109C241.789 226.109 241.764 226.147 241.743 226.195C241.726 226.242 241.71 226.471 241.771 226.642C241.993 226.845 242.378 226.86 242.459 226.821C242.486 226.805 242.523 226.777 242.536 226.766C242.543 226.759 242.555 226.748 242.561 226.743C242.59 226.714 242.63 226.668 242.666 226.627C242.749 226.53 242.889 226.363 243.089 226.123C243.49 225.642 244.138 224.856 245.063 223.73L244.29 223.095ZM288.477 169.726C294.103 161.98 302.823 150.566 307.58 137.826C312.347 125.062 313.163 110.892 302.89 97.7142L302.102 98.329C312.09 111.143 311.335 124.914 306.643 137.476C301.944 150.061 293.32 161.356 287.668 169.139L288.477 169.726Z" fill="white"/>
        <path d="M496.349 425.417L495.93 425.689L495.938 425.702L495.947 425.714L496.349 425.417ZM399.135 275.815L399.554 275.542L398.641 275.896L399.135 275.815ZM491.426 515.572L491.808 515.895L491.426 515.572ZM470.889 539.79L470.508 539.467L470.889 539.79ZM274.271 775.41L274.631 775.757L274.648 775.74L274.663 775.72L274.271 775.41ZM245.538 852.4L245.053 852.522L245.085 852.649L245.175 852.744L245.538 852.4ZM280.088 908.557L279.595 908.639L280.088 908.557ZM263.586 959.949L263.226 959.601L263.217 959.61L263.209 959.62L263.586 959.949ZM245.694 980.46L245.317 980.131L245.312 980.137L245.308 980.142L245.694 980.46ZM221.62 1031.23L221.265 1031.58L222.345 1032.67L222.114 1031.15L221.62 1031.23ZM201.821 932.841L201.424 932.537L201.423 932.539L201.821 932.841ZM212.429 919.011L212.044 918.692L212.038 918.7L212.032 918.707L212.429 919.011ZM236.58 847.428L237.065 847.305L237.036 847.188L236.956 847.098L236.58 847.428ZM208.33 753.419L207.858 753.254L207.853 753.266L207.849 753.279L208.33 753.419ZM222.831 733.006L223.198 733.345L223.208 733.334L223.218 733.322L222.831 733.006ZM371.097 551.973L370.716 551.65L370.71 551.656L371.097 551.973ZM420.124 494.103L420.505 494.427L420.51 494.421L420.124 494.103ZM418.893 432.836L418.469 433.103L418.488 433.133L418.511 433.16L418.893 432.836ZM406.512 413.17L406.935 412.903L406.562 412.31L406.123 412.856L406.512 413.17ZM285.484 563.561L285.871 563.877L285.873 563.874L285.484 563.561ZM199.383 668.861L198.996 668.545L198.991 668.552L198.985 668.559L199.383 668.861ZM177.59 742.52L177.258 742.893L178.053 742.332L177.59 742.52ZM134.664 666.052L134.164 666.079L134.165 666.092L134.166 666.105L134.664 666.052ZM162.142 611.77L161.763 611.444L162.142 611.77ZM327.343 406.604L327.735 406.915L327.737 406.913L327.343 406.604ZM376.057 344.636L376.45 344.945L376.452 344.943L376.057 344.636ZM496.768 425.144L399.554 275.542L398.716 276.087L495.93 425.689L496.768 425.144ZM491.808 515.895C524.476 477.259 506.558 438.384 496.751 425.12L495.947 425.714C505.623 438.801 523.281 477.124 491.044 515.249L491.808 515.895ZM471.27 540.114C479.896 529.952 486.93 521.663 491.808 515.895L491.044 515.249C486.167 521.017 479.133 529.304 470.508 539.467L471.27 540.114ZM274.663 775.72C322.856 714.97 422.496 597.578 471.27 540.114L470.508 539.467C421.739 596.924 322.085 714.332 273.88 775.099L274.663 775.72ZM246.023 852.277C242.299 837.545 246.111 821.861 252.55 808.106C258.985 794.357 268.017 782.599 274.631 775.757L273.912 775.062C267.232 781.972 258.133 793.819 251.644 807.682C245.158 821.539 241.25 837.474 245.053 852.522L246.023 852.277ZM245.175 852.744C252.166 860.117 260 869.379 266.474 879.164C272.954 888.956 278.045 899.232 279.595 908.639L280.582 908.476C278.998 898.865 273.818 888.45 267.308 878.612C260.793 868.765 252.919 859.457 245.901 852.056L245.175 852.744ZM279.595 908.639C283.623 933.089 272.628 949.876 263.226 959.601L263.945 960.296C273.475 950.438 284.679 933.349 280.582 908.476L279.595 908.639ZM263.209 959.62L245.317 980.131L246.071 980.789L263.963 960.277L263.209 959.62ZM245.308 980.142C231.917 996.4 225.44 1006.41 222.53 1013.76C219.6 1021.15 220.292 1025.82 221.126 1031.3L222.114 1031.15C221.288 1025.72 220.63 1021.26 223.459 1014.13C226.308 1006.94 232.697 997.026 246.08 980.778L245.308 980.142ZM221.975 1030.88C196.782 1005.48 189.112 984.711 189.073 968.501C189.034 952.285 196.63 940.523 202.22 933.143L201.423 932.539C195.789 939.976 188.033 951.957 188.073 968.504C188.113 985.059 195.954 1006.07 221.265 1031.58L221.975 1030.88ZM202.218 933.146L212.826 919.316L212.032 918.707L201.424 932.537L202.218 933.146ZM212.814 919.33C238.954 887.768 240.568 861.1 237.065 847.305L236.096 847.551C239.508 860.987 238.014 887.335 212.044 918.692L212.814 919.33ZM207.849 753.279C196.964 790.849 218.079 827.131 236.205 847.758L236.956 847.098C218.895 826.544 198.072 790.619 208.81 753.558L207.849 753.279ZM222.463 732.667C212.948 742.992 208.768 750.65 207.858 753.254L208.802 753.584C209.648 751.162 213.728 743.621 223.198 733.345L222.463 732.667ZM370.71 551.656L222.444 732.689L223.218 733.322L371.484 552.29L370.71 551.656ZM419.742 493.78L370.716 551.65L371.479 552.296L420.505 494.427L419.742 493.78ZM418.511 433.16C428.502 444.94 430.192 458.41 428.684 469.802C427.172 481.215 422.458 490.482 419.738 493.786L420.51 494.421C423.367 490.953 428.143 481.502 429.675 469.933C431.21 458.343 429.495 444.565 419.274 432.513L418.511 433.16ZM406.089 413.436L418.469 433.103L419.316 432.57L406.935 412.903L406.089 413.436ZM285.873 563.874L406.902 413.483L406.123 412.856L285.094 563.247L285.873 563.874ZM199.771 669.178L285.871 563.877L285.097 563.244L198.996 668.545L199.771 669.178ZM178.053 742.332C173.377 730.83 175.961 716.274 181.183 702.663C186.396 689.073 194.193 676.541 199.782 669.163L198.985 668.559C193.351 675.998 185.502 688.611 180.249 702.305C175.004 715.977 172.303 730.842 177.127 742.708L178.053 742.332ZM134.166 666.105C135.967 683.123 143.536 699.466 152.242 712.967C160.949 726.47 170.816 737.166 177.258 742.893L177.922 742.146C171.547 736.478 161.739 725.851 153.082 712.425C144.424 698.997 136.939 682.805 135.161 666L134.166 666.105ZM161.763 611.444C150.294 624.755 143.302 636.611 139.224 646.034C135.152 655.443 133.972 662.457 134.164 666.079L135.163 666.026C134.982 662.618 136.101 655.767 140.142 646.431C144.177 637.109 151.111 625.338 162.521 612.096L161.763 611.444ZM326.952 406.293C281.413 463.624 184.634 584.9 161.763 611.444L162.521 612.096C185.408 585.533 282.205 464.235 327.735 406.915L326.952 406.293ZM375.664 344.327L326.95 406.295L327.737 406.913L376.45 344.945L375.664 344.327ZM398.641 275.896C400.651 288.094 397.32 302.113 392.256 314.66C387.196 327.199 380.434 338.198 375.663 344.329L376.452 344.943C381.281 338.738 388.089 327.657 393.184 315.035C398.274 302.421 401.682 288.198 399.628 275.734L398.641 275.896Z" fill="white"/>
    </g>
    <g opacity="0.08">
        <path d="M472.373 -69.1328L472.733 -68.7852L472.78 -68.8338L472.812 -68.8931L472.373 -69.1328ZM449.267 -16.9276L448.768 -16.8925L449.267 -16.9276ZM489.395 51.9472L489.027 52.2866L489.838 51.717L489.395 51.9472ZM518.905 -16.9276L519.29 -16.6087L518.905 -16.9276ZM732.39 -280.673L732.003 -280.989L732 -280.986L732.39 -280.673ZM740.246 -428.397L740.601 -428.749L739.522 -429.837L739.752 -428.322L740.246 -428.397ZM696.18 -350.497L696.566 -350.179L696.18 -350.497ZM605.721 -237.992L606.106 -237.674L606.113 -237.682L605.721 -237.992ZM524.389 -139.405L524.035 -139.051L524.424 -138.662L524.775 -139.086L524.389 -139.405ZM501.749 -207.064L501.363 -207.383L501.325 -207.337L501.299 -207.283L501.749 -207.064ZM479.685 -82.5234L480.124 -82.2838L480.288 -82.5852L480.066 -82.847L479.685 -82.5234ZM589.104 -312.673L589.49 -312.354L589.49 -312.355L589.104 -312.673ZM646.14 -381.888L646.527 -381.571L645.754 -382.206L646.14 -381.888ZM695.187 -509.127L695.581 -509.435L695.187 -509.127ZM653.233 -559.126L653.576 -559.49L652.76 -558.963L653.233 -559.126ZM560.133 -386.197L559.754 -386.524L560.133 -386.197ZM439.999 -237.848L439.605 -238.155L439.605 -238.155L439.999 -237.848ZM442.1 -126.801L441.68 -126.531L441.697 -126.503L441.719 -126.478L442.1 -126.801ZM762.508 -317.507L762.895 -317.19L762.901 -317.198L762.906 -317.205L762.508 -317.507ZM633.092 -482.92L633.521 -482.662L633.092 -482.92ZM565.8 -393.058L565.408 -393.369L565.8 -393.058ZM686.538 -436.093L686.943 -435.799L686.538 -436.093ZM472.014 -69.4803C467.02 -64.3147 460.839 -56.5361 456.09 -47.3741C451.343 -38.2147 448.012 -27.6385 448.768 -16.8925L449.765 -16.9627C449.026 -27.4623 452.281 -37.851 456.978 -46.914C461.674 -55.9744 467.793 -63.6756 472.733 -68.7852L472.014 -69.4803ZM448.768 -16.8925C449.52 -6.21187 451.497 2.35102 457.351 12.6264C463.192 22.8771 472.884 34.8203 489.027 52.2866L489.762 51.6079C473.623 34.146 463.999 22.2746 458.22 12.1313C452.455 2.01271 450.509 -6.39777 449.765 -16.9627L448.768 -16.8925ZM489.838 51.717C487.082 46.4019 486.409 39.0264 490.452 28.1095C494.499 17.181 503.256 2.75101 519.29 -16.6087L518.52 -17.2465C502.456 2.14943 493.618 16.6804 489.514 27.7622C485.406 38.8557 486.027 46.5398 488.951 52.1774L489.838 51.717ZM519.29 -16.6087C551.39 -55.3677 672.474 -205.357 732.78 -280.36L732 -280.986C671.693 -205.982 550.614 -55.9987 518.52 -17.2465L519.29 -16.6087ZM739.752 -428.322C740.168 -425.588 739.425 -421.519 737.576 -416.36C735.734 -411.219 732.819 -405.064 728.966 -398.189C721.261 -384.44 709.827 -367.853 695.794 -350.815L696.566 -350.179C710.629 -367.253 722.099 -383.89 729.839 -397.7C733.708 -404.605 736.65 -410.813 738.517 -416.022C740.377 -421.212 741.196 -425.48 740.741 -428.472L739.752 -428.322ZM695.794 -350.815C667.695 -316.699 623.775 -261.591 605.329 -238.302L606.113 -237.682C624.559 -260.97 668.474 -316.072 696.566 -350.179L695.794 -350.815ZM605.335 -238.31L524.003 -139.723L524.775 -139.086L606.106 -237.674L605.335 -238.31ZM524.743 -139.758C518.755 -145.746 508.962 -153.939 502.725 -164.965C496.515 -175.943 493.852 -189.711 502.198 -206.845L501.299 -207.283C492.791 -189.818 495.503 -175.702 501.855 -164.473C508.179 -153.291 518.133 -144.955 524.035 -139.051L524.743 -139.758ZM472.812 -68.8931L480.124 -82.2838L479.246 -82.7631L471.935 -69.3724L472.812 -68.8931ZM502.134 -206.745L589.49 -312.354L588.719 -312.991L501.363 -207.383L502.134 -206.745ZM589.49 -312.355L645.981 -380.909L645.209 -381.545L588.718 -312.991L589.49 -312.355ZM645.981 -380.909L646.526 -381.57L645.754 -382.206L645.209 -381.545L645.981 -380.909ZM695.581 -509.435C670.962 -541.017 657.333 -555.954 653.576 -559.49L652.89 -558.762C656.586 -555.284 670.174 -540.401 694.792 -508.82L695.581 -509.435ZM559.754 -386.524C523.731 -344.716 462.273 -267.284 439.605 -238.155L440.394 -237.541C463.061 -266.668 524.506 -344.084 560.511 -385.871L559.754 -386.524ZM439.605 -238.155C425.085 -219.497 412.87 -171.346 441.68 -126.531L442.521 -127.072C413.957 -171.505 426.116 -219.194 440.394 -237.541L439.605 -238.155ZM480.066 -82.847L442.481 -127.125L441.719 -126.478L479.304 -82.1999L480.066 -82.847ZM732.777 -280.356L762.895 -317.19L762.121 -317.823L732.003 -280.989L732.777 -280.356ZM762.906 -317.205C768.842 -325.042 776.584 -339.517 776.168 -358.762C775.752 -378.017 767.171 -401.969 740.601 -428.749L739.892 -428.045C766.321 -401.407 774.759 -377.688 775.168 -358.74C775.578 -339.781 767.95 -325.52 762.109 -317.809L762.906 -317.205ZM652.76 -558.963C655.08 -552.256 654.927 -541.401 651.738 -528.136C648.553 -514.891 642.356 -499.307 632.664 -483.177L633.521 -482.662C643.261 -498.871 649.5 -514.549 652.71 -527.902C655.916 -541.236 656.117 -552.315 653.706 -559.29L652.76 -558.963ZM632.664 -483.177C631.608 -481.42 627.242 -475.388 621.168 -467.178C615.104 -458.982 607.36 -448.648 599.573 -438.311C583.995 -417.634 568.247 -396.957 565.408 -393.369L566.192 -392.748C569.04 -396.348 584.796 -417.036 600.371 -437.709C608.16 -448.047 615.905 -458.384 621.972 -466.583C628.027 -474.768 632.434 -480.852 633.521 -482.662L632.664 -483.177ZM565.408 -393.369C563.597 -391.08 561.713 -388.797 559.754 -386.524L560.511 -385.871C562.479 -388.155 564.372 -390.449 566.192 -392.748L565.408 -393.369ZM645.754 -382.205C645.562 -381.972 645.381 -381.752 645.21 -381.545L645.981 -380.908C646.152 -381.115 646.334 -381.336 646.527 -381.571L645.754 -382.205ZM645.21 -381.545C644.356 -380.513 643.768 -379.822 643.412 -379.428C643.227 -379.223 643.127 -379.123 643.09 -379.092C643.08 -379.085 643.096 -379.099 643.128 -379.117C643.143 -379.125 643.187 -379.147 643.25 -379.16C643.307 -379.172 643.457 -379.192 643.611 -379.093C643.777 -378.988 643.824 -378.828 643.835 -378.746C643.845 -378.668 643.834 -378.609 643.829 -378.59C643.82 -378.546 643.808 -378.521 643.812 -378.531C643.828 -378.567 643.891 -378.676 644.027 -378.883C644.155 -379.079 644.331 -379.336 644.552 -379.652C644.994 -380.282 645.611 -381.137 646.373 -382.178C649.424 -386.346 654.794 -393.479 660.651 -401.211C672.357 -416.666 686.016 -434.524 686.943 -435.799L686.134 -436.387C685.215 -435.122 671.573 -417.287 659.853 -401.815C653.997 -394.083 648.623 -386.944 645.567 -382.769C644.802 -381.725 644.181 -380.865 643.733 -380.226C643.509 -379.906 643.327 -379.639 643.191 -379.431C643.062 -379.235 642.955 -379.062 642.901 -378.944C642.888 -378.915 642.865 -378.86 642.851 -378.795C642.844 -378.764 642.832 -378.696 642.844 -378.612C642.856 -378.523 642.904 -378.358 643.074 -378.25C643.233 -378.149 643.388 -378.168 643.454 -378.181C643.524 -378.196 643.577 -378.222 643.602 -378.236C643.656 -378.265 643.7 -378.3 643.726 -378.321C643.829 -378.406 643.976 -378.56 644.155 -378.758C644.526 -379.169 645.126 -379.875 645.981 -380.908L645.21 -381.545ZM686.943 -435.799C692.868 -443.957 700.393 -455.46 703.759 -468.367C707.13 -481.297 706.327 -495.65 695.581 -509.435L694.792 -508.82C705.309 -495.329 706.1 -481.312 702.791 -468.619C699.475 -455.902 692.045 -444.525 686.134 -436.387L686.943 -435.799Z" fill="white"/>
        <path d="M899.021 -171.368L898.602 -171.096L898.61 -171.083L898.619 -171.071L899.021 -171.368ZM797.005 -328.361L797.424 -328.633L796.511 -328.279L797.005 -328.361ZM887.119 -79.5432L887.501 -79.2204L887.119 -79.5432ZM669.328 189.542L669.687 189.89L669.704 189.872L669.719 189.853L669.328 189.542ZM626.447 285.164L625.955 285.256L625.986 285.421L626.11 285.534L626.447 285.164ZM673.324 354.557L672.83 354.638L673.324 354.557ZM656.006 408.487L655.647 408.14L655.638 408.149L655.629 408.158L656.006 408.487ZM637.23 430.012L636.853 429.683L636.849 429.688L636.844 429.694L637.23 430.012ZM611.967 483.289L611.612 483.641L612.692 484.729L612.461 483.214L611.967 483.289ZM591.172 383.632L590.784 383.317L590.779 383.323L590.773 383.331L591.172 383.632ZM604.344 367.466L603.959 367.147L603.957 367.15L604.344 367.466ZM625.404 284.224L625.737 283.851L624.96 284.455L625.404 284.224ZM626.25 284.985L625.914 285.356L626.688 284.744L626.25 284.985ZM604.698 251.852L604.288 252.139L604.698 251.852ZM581.478 189.543L581.913 189.788L581.935 189.75L581.95 189.708L581.478 189.543ZM611.991 151.415L612.359 151.754L612.369 151.743L612.378 151.732L611.991 151.415ZM767.582 -38.5602L767.969 -38.2433L767.975 -38.2513L767.582 -38.5602ZM817.92 -102.621L817.534 -102.939L817.526 -102.93L817.92 -102.621ZM816.628 -166.915L816.205 -166.648L816.224 -166.618L816.246 -166.591L816.628 -166.915ZM803.636 -187.553L804.059 -187.819L803.68 -188.421L803.242 -187.861L803.636 -187.553ZM677.739 -26.4L678.126 -26.0834L678.133 -26.0921L677.739 -26.4ZM587.385 84.1023L586.998 83.7858L586.993 83.793L586.987 83.8004L587.385 84.1023ZM552.371 172.608L551.95 172.877L552.834 172.419L552.371 172.608ZM540.696 155.038L541.11 154.758L540.696 155.038ZM510.939 90.8406L510.455 90.715L510.452 90.7261L510.449 90.7373L510.939 90.8406ZM548.304 24.1906L547.925 23.8642L548.304 24.1906ZM721.667 -191.11L722.058 -190.799L722.064 -190.807L721.667 -191.11ZM772.11 -257.174L771.716 -257.481L771.713 -257.477L772.11 -257.174ZM899.441 -171.641L797.424 -328.633L796.585 -328.088L898.602 -171.096L899.441 -171.641ZM887.501 -79.2204C921.724 -119.695 909.767 -157.676 899.423 -171.666L898.619 -171.071C908.721 -157.408 920.626 -119.945 886.737 -79.866L887.501 -79.2204ZM669.719 189.853C729.245 114.816 853.451 -38.9503 887.501 -79.2204L886.737 -79.866C852.676 -39.583 728.462 114.194 668.936 189.232L669.719 189.853ZM626.938 285.072C623.356 265.913 630.293 245.98 640.036 228.869C649.773 211.769 662.27 197.563 669.687 189.89L668.968 189.195C661.52 196.899 648.962 211.173 639.167 228.374C629.379 245.564 622.309 265.753 625.955 285.256L626.938 285.072ZM626.11 285.534C633.364 292.134 644.02 303.144 653.379 315.65C662.748 328.17 670.769 342.13 672.83 354.638L673.817 354.476C671.716 341.722 663.573 327.603 654.18 315.051C644.777 302.486 634.076 291.43 626.783 284.794L626.11 285.534ZM672.83 354.638C677.059 380.307 665.515 397.931 655.647 408.14L656.366 408.835C666.363 398.493 678.116 380.567 673.817 354.476L672.83 354.638ZM655.629 408.158L636.853 429.683L637.607 430.34L656.383 408.816L655.629 408.158ZM636.844 429.694C622.792 446.754 615.997 457.262 612.945 464.964C609.873 472.714 610.598 477.615 611.473 483.364L612.461 483.214C611.594 477.512 610.903 472.83 613.874 465.332C616.865 457.786 623.572 447.381 637.616 430.33L636.844 429.694ZM612.322 482.937C585.874 456.28 577.824 435.372 577.778 419.258C577.733 403.14 585.692 391.695 591.57 383.934L590.773 383.331C584.874 391.118 576.732 402.792 576.778 419.261C576.825 435.735 585.061 456.88 611.612 483.641L612.322 482.937ZM591.559 383.948L604.732 367.782L603.957 367.15L590.784 383.317L591.559 383.948ZM604.73 367.785C636.941 328.892 631.63 295.144 625.848 283.994L624.96 284.455C630.538 295.21 635.943 328.529 603.959 367.147L604.73 367.785ZM625.071 284.598C625.347 284.843 625.628 285.096 625.914 285.356L626.586 284.615C626.297 284.353 626.014 284.099 625.737 283.851L625.071 284.598ZM604.288 252.139C611.746 262.767 619.536 273.869 625.813 285.227L626.688 284.744C620.381 273.331 612.559 262.184 605.107 251.565L604.288 252.139ZM581.042 189.297C576.354 197.609 577.962 207.287 582.793 217.839C587.625 228.396 595.745 239.964 604.288 252.139L605.107 251.565C596.546 239.366 588.488 227.879 583.702 217.423C578.914 206.964 577.465 197.674 581.913 189.788L581.042 189.297ZM611.623 151.077C606.631 156.494 599.224 165.378 592.954 173.232C589.818 177.16 586.963 180.835 584.833 183.694C583.768 185.124 582.882 186.353 582.232 187.31C581.907 187.788 581.638 188.202 581.434 188.541C581.236 188.871 581.082 189.16 581.006 189.378L581.95 189.708C581.989 189.595 582.096 189.382 582.292 189.056C582.482 188.739 582.739 188.342 583.059 187.872C583.697 186.932 584.574 185.716 585.635 184.292C587.756 181.444 590.603 177.779 593.735 173.856C600.001 166.008 607.39 157.146 612.359 151.754L611.623 151.077ZM767.195 -38.877L611.604 151.099L612.378 151.732L767.969 -38.2434L767.195 -38.877ZM817.526 -102.93L767.189 -38.8692L767.975 -38.2513L818.313 -102.312L817.526 -102.93ZM816.246 -166.591C826.737 -154.222 828.511 -140.08 826.927 -128.12C825.341 -116.139 820.392 -106.409 817.534 -102.939L818.306 -102.303C821.3 -105.939 826.311 -115.851 827.918 -127.988C829.528 -140.146 827.73 -154.598 817.009 -167.238L816.246 -166.591ZM803.213 -187.286L816.205 -166.648L817.051 -167.181L804.059 -187.819L803.213 -187.286ZM678.133 -26.0921L804.03 -187.245L803.242 -187.861L677.345 -26.7078L678.133 -26.0921ZM587.773 84.4188L678.126 -26.0835L677.352 -26.7165L586.998 83.7858L587.773 84.4188ZM552.834 172.419C550.398 166.426 550.582 158.92 552.467 150.732C554.35 142.553 557.916 133.753 562.171 125.213C570.679 108.134 581.905 92.1657 587.784 84.4042L586.987 83.8004C581.089 91.5873 569.823 107.611 561.276 124.767C557.003 133.345 553.4 142.223 551.493 150.508C549.588 158.784 549.36 166.528 551.908 172.796L552.834 172.419ZM540.282 155.319C544.339 161.311 548.339 167.219 551.95 172.877L552.793 172.339C549.173 166.668 545.165 160.748 541.11 154.758L540.282 155.319ZM510.449 90.7373C509.612 94.7038 510.077 99.2471 511.469 104.174C512.861 109.104 515.19 114.452 518.116 120.042C523.967 131.221 532.238 143.438 540.282 155.319L541.11 154.758C533.057 142.864 524.821 130.697 519.002 119.579C516.093 114.021 513.798 108.741 512.431 103.902C511.064 99.0603 510.636 94.693 511.428 90.9439L510.449 90.7373ZM547.925 23.8642C523.873 51.7793 516.452 67.6139 510.455 90.715L511.423 90.9662C517.376 68.0323 524.717 52.3319 548.683 24.517L547.925 23.8642ZM721.275 -191.421C673.487 -131.259 571.926 -3.99098 547.925 23.8642L548.683 24.517C572.701 -3.35775 674.279 -130.648 722.058 -190.799L721.275 -191.421ZM771.713 -257.477L721.269 -191.414L722.064 -190.807L772.508 -256.87L771.713 -257.477ZM796.511 -328.279C798.621 -315.477 794.957 -301.022 789.474 -288.112C783.996 -275.213 776.729 -263.923 771.716 -257.481L772.505 -256.867C777.566 -263.37 784.879 -274.734 790.395 -287.721C795.906 -300.699 799.653 -315.364 797.498 -328.442L796.511 -328.279Z" fill="white"/>
    </g>
</svg>
