<svg width="70" height="71" viewBox="0 0 70 71" fill="none" xmlns="http://www.w3.org/2000/svg">
    <rect width="56" height="56" rx="3" fill="#1B1B3A"/>
    <path d="M55.6644 38.2687L55.6416 38.3112L55.6416 38.3112C54.5812 40.2893 52.9487 42.6961 50.6497 45.3557C48.5525 47.4408 45.9958 51.1728 46.7571 56.6515C47.0183 58.5305 47.8414 60.4319 48.8223 62.1496L48.8223 62.1496L48.8245 62.1534L48.8245 62.1534L48.8575 62.2111C49.7877 63.8402 50.5285 65.1374 51.1032 66.028C51.3906 66.4735 51.6878 66.8988 51.989 67.2341C52.1401 67.4023 52.3403 67.6024 52.588 67.7764C52.8229 67.9413 53.2376 68.1802 53.7971 68.2228C54.0079 68.2389 54.1614 68.2358 54.3718 68.2114C55.0602 68.1316 55.5245 67.751 55.7051 67.5923C55.9347 67.3905 56.1275 67.1614 56.2794 66.9639C56.5877 66.5631 56.922 66.0346 57.276 65.4352C57.9864 64.2321 58.9377 62.4638 60.1638 60.1844L60.1907 60.1344L60.1907 60.1344C60.1912 60.1334 60.1918 60.1325 60.1923 60.1315C60.8711 58.8702 61.7981 57.5027 63.0496 56.0597L64.3798 54.7318L64.4609 54.6509L64.5323 54.5615C65.6215 53.1964 66.9312 50.9533 67.2856 47.9497C67.644 44.9124 67.0031 41.2798 64.4713 37.2168L64.4238 37.1405C63.8083 36.1527 63.2818 35.3078 62.8417 34.7136C62.6164 34.4093 62.3472 34.0777 62.0357 33.8044C61.7474 33.5514 61.1956 33.1444 60.4137 33.1017C60.2127 33.0907 60.0489 33.0972 59.849 33.124L60.0967 35.0987L59.849 33.124C58.9742 33.2415 58.4151 33.8141 58.1889 34.0629C57.9013 34.3793 57.6403 34.7636 57.407 35.1382C56.9445 35.8809 56.3744 36.9443 55.68 38.2398L55.6644 38.2687Z" fill="#FF8200" stroke="#F8FAFD" stroke-width="4"/>
    <path d="M48.7396 55.3029C48.0885 50.6174 50.2695 47.4657 52.1071 45.6583C54.5145 42.8811 56.2541 40.3311 57.4041 38.186C58.8581 35.4739 59.585 34.1179 60.0974 34.0491C60.1724 34.039 60.2102 34.0376 60.2856 34.0417C60.8009 34.0698 61.4571 35.1227 62.7693 37.2286C67.4083 44.6731 64.806 49.9703 62.9716 52.2693L61.5907 53.6478C60.223 55.217 59.193 56.7267 58.4296 58.1458L58.4296 58.1458C55.9322 62.7885 54.6834 65.1098 54.1594 65.1705C54.0763 65.1802 54.0511 65.1807 53.9679 65.1743C53.4428 65.1344 52.4829 63.4534 50.5632 60.0916C49.6419 58.4783 48.9515 56.8281 48.7396 55.3029Z" fill="#FF8200" stroke="#F8FAFD" stroke-width="5"/>
    <path d="M34.6668 40V37.3333C34.6668 35.9188 34.1049 34.5623 33.1047 33.5621C32.1045 32.5619 30.748 32 29.3335 32H18.6668C17.2523 32 15.8958 32.5619 14.8956 33.5621C13.8954 34.5623 13.3335 35.9188 13.3335 37.3333V40" stroke="white" stroke-width="2.2" stroke-linecap="round" stroke-linejoin="round"/>
    <path d="M23.9998 26.6667C26.9454 26.6667 29.3332 24.2789 29.3332 21.3333C29.3332 18.3878 26.9454 16 23.9998 16C21.0543 16 18.6665 18.3878 18.6665 21.3333C18.6665 24.2789 21.0543 26.6667 23.9998 26.6667Z" stroke="white" stroke-width="2.2" stroke-linecap="round" stroke-linejoin="round"/>
    <path d="M42.6665 39.9995V37.3329C42.6656 36.1512 42.2723 35.0032 41.5483 34.0693C40.8243 33.1353 39.8107 32.4683 38.6665 32.1729" stroke="white" stroke-width="2.2" stroke-linecap="round" stroke-linejoin="round"/>
    <path d="M33.3335 16.1729C34.4807 16.4666 35.4975 17.1338 36.2237 18.0693C36.9498 19.0047 37.344 20.1553 37.344 21.3395C37.344 22.5237 36.9498 23.6743 36.2237 24.6098C35.4975 25.5452 34.4807 26.2125 33.3335 26.5062" stroke="white" stroke-width="2.2" stroke-linecap="round" stroke-linejoin="round"/>
</svg>
